%FSLAX23Y23*%
%MOIN*%
G70*
G01*
G75*
G04 Layer_Color=65535*
%ADD10R,0.394X0.016*%
%ADD11O,0.394X0.016*%
%ADD12C,0.010*%
%ADD13R,0.059X0.059*%
%ADD14C,0.059*%
%ADD15R,0.059X0.059*%
%ADD16C,0.039*%
%ADD17C,0.015*%
%ADD18C,0.200*%
%ADD19C,0.008*%
%ADD20C,0.008*%
D12*
X1566Y5240D02*
X1576Y5250D01*
X1596D01*
X1606Y5240D01*
Y5200D01*
X1596Y5190D01*
X1576D01*
X1566Y5200D01*
Y5240D01*
X1626Y5190D02*
X1646D01*
X1636D01*
Y5250D01*
X1626Y5240D01*
X1676Y5190D02*
X1716Y5230D01*
X1736Y5240D02*
X1746Y5250D01*
X1766D01*
X1776Y5240D01*
Y5200D01*
X1766Y5190D01*
X1746D01*
X1736Y5200D01*
Y5240D01*
X1836Y5250D02*
X1796D01*
Y5220D01*
X1816Y5230D01*
X1826D01*
X1836Y5220D01*
Y5200D01*
X1826Y5190D01*
X1806D01*
X1796Y5200D01*
X1856Y5190D02*
X1896Y5230D01*
X1956Y5190D02*
X1916D01*
X1956Y5230D01*
Y5240D01*
X1946Y5250D01*
X1926D01*
X1916Y5240D01*
X1976D02*
X1986Y5250D01*
X2006D01*
X2016Y5240D01*
Y5200D01*
X2006Y5190D01*
X1986D01*
X1976Y5200D01*
Y5240D01*
X2036Y5190D02*
X2056D01*
X2046D01*
Y5250D01*
X2036Y5240D01*
X2126Y5190D02*
X2086D01*
X2126Y5230D01*
Y5240D01*
X2116Y5250D01*
X2096D01*
X2086Y5240D01*
X1566Y5396D02*
X1606D01*
X1586D01*
Y5336D01*
X1636Y5376D02*
X1656D01*
X1666Y5366D01*
Y5336D01*
X1636D01*
X1626Y5346D01*
X1636Y5356D01*
X1666D01*
X1686Y5376D02*
Y5346D01*
X1696Y5336D01*
X1726D01*
Y5326D01*
X1716Y5316D01*
X1706D01*
X1726Y5336D02*
Y5376D01*
X1746D02*
Y5346D01*
X1756Y5336D01*
X1786D01*
Y5326D01*
X1776Y5316D01*
X1766D01*
X1786Y5336D02*
Y5376D01*
X1816D02*
X1836D01*
X1846Y5366D01*
Y5336D01*
X1816D01*
X1806Y5346D01*
X1816Y5356D01*
X1846D01*
X1866Y5376D02*
Y5336D01*
Y5356D01*
X1876Y5366D01*
X1886Y5376D01*
X1896D01*
X1986Y5336D02*
Y5396D01*
X2016D01*
X2026Y5386D01*
Y5366D01*
X2016Y5356D01*
X1986D01*
X2006D02*
X2026Y5336D01*
X2046Y5376D02*
X2086D01*
X2046Y5336D01*
X2086D01*
X2116Y5376D02*
X2136D01*
X2146Y5366D01*
Y5336D01*
X2116D01*
X2106Y5346D01*
X2116Y5356D01*
X2146D01*
X2166Y5376D02*
Y5346D01*
X2176Y5336D01*
X2206D01*
Y5326D01*
X2196Y5316D01*
X2186D01*
X2206Y5336D02*
Y5376D01*
X2256Y5336D02*
X2236D01*
X2226Y5346D01*
Y5366D01*
X2236Y5376D01*
X2256D01*
X2266Y5366D01*
Y5356D01*
X2226D01*
X2286Y5376D02*
X2306Y5336D01*
X2326Y5376D01*
X1559Y5477D02*
X1579D01*
X1569D01*
Y5537D01*
X1559Y5527D01*
X1609Y5517D02*
X1649Y5477D01*
X1629Y5497D01*
X1649Y5517D01*
X1609Y5477D01*
X1669Y5527D02*
X1679Y5537D01*
X1699D01*
X1709Y5527D01*
Y5517D01*
X1699Y5507D01*
X1709Y5497D01*
Y5487D01*
X1699Y5477D01*
X1679D01*
X1669Y5487D01*
Y5497D01*
X1679Y5507D01*
X1669Y5517D01*
Y5527D01*
X1679Y5507D02*
X1699D01*
X1789Y5477D02*
Y5537D01*
X1819D01*
X1829Y5527D01*
Y5507D01*
X1819Y5497D01*
X1789D01*
X1849Y5537D02*
Y5477D01*
Y5507D01*
X1859Y5517D01*
X1879D01*
X1889Y5507D01*
Y5477D01*
X1919Y5517D02*
X1939D01*
X1949Y5507D01*
Y5477D01*
X1919D01*
X1909Y5487D01*
X1919Y5497D01*
X1949D01*
X1969Y5477D02*
X1999D01*
X2009Y5487D01*
X1999Y5497D01*
X1979D01*
X1969Y5507D01*
X1979Y5517D01*
X2009D01*
X2059Y5477D02*
X2039D01*
X2029Y5487D01*
Y5507D01*
X2039Y5517D01*
X2059D01*
X2069Y5507D01*
Y5497D01*
X2029D01*
X2129Y5537D02*
Y5477D01*
X2099D01*
X2089Y5487D01*
Y5507D01*
X2099Y5517D01*
X2129D01*
X2209Y5477D02*
Y5517D01*
X2229Y5537D01*
X2249Y5517D01*
Y5477D01*
Y5507D01*
X2209D01*
X2269Y5517D02*
Y5477D01*
Y5497D01*
X2279Y5507D01*
X2289Y5517D01*
X2299D01*
X2329D02*
Y5477D01*
Y5497D01*
X2339Y5507D01*
X2349Y5517D01*
X2359D01*
X2399D02*
X2419D01*
X2429Y5507D01*
Y5477D01*
X2399D01*
X2389Y5487D01*
X2399Y5497D01*
X2429D01*
X2449Y5517D02*
Y5487D01*
X2459Y5477D01*
X2489D01*
Y5467D01*
X2479Y5457D01*
X2469D01*
X2489Y5477D02*
Y5517D01*
X2569Y5477D02*
Y5537D01*
X2589Y5517D01*
X2609Y5537D01*
Y5477D01*
X2669Y5487D02*
Y5527D01*
X2659Y5537D01*
X2639D01*
X2629Y5527D01*
Y5487D01*
X2639Y5477D01*
X2659D01*
X2649Y5497D02*
X2669Y5477D01*
X2659D02*
X2669Y5487D01*
X2689Y5477D02*
Y5537D01*
X2719D01*
X2729Y5527D01*
Y5507D01*
X2719Y5497D01*
X2689D01*
X1330Y6589D02*
X1270D01*
Y6619D01*
X1280Y6629D01*
X1300D01*
X1310Y6619D01*
Y6589D01*
X1280Y6649D02*
X1270Y6659D01*
Y6679D01*
X1280Y6689D01*
X1290D01*
X1300Y6679D01*
Y6669D01*
Y6679D01*
X1310Y6689D01*
X1320D01*
X1330Y6679D01*
Y6659D01*
X1320Y6649D01*
X1330Y6739D02*
X1270D01*
X1300Y6709D01*
Y6749D01*
X3906Y5313D02*
X3946D01*
X3966Y5333D01*
X3946Y5353D01*
X3906D01*
Y5373D02*
X3966D01*
X3936D01*
Y5413D01*
X3906D01*
X3966D01*
X3906Y5433D02*
X3966D01*
Y5463D01*
X3956Y5473D01*
X3916D01*
X3906Y5463D01*
Y5433D01*
X3916Y5533D02*
X3906Y5523D01*
Y5503D01*
X3916Y5493D01*
X3956D01*
X3966Y5503D01*
Y5523D01*
X3956Y5533D01*
X3966Y5553D02*
Y5573D01*
Y5563D01*
X3906D01*
X3916Y5553D01*
X3899Y4613D02*
X3939D01*
X3959Y4633D01*
X3939Y4653D01*
X3899D01*
Y4673D02*
X3959D01*
X3929D01*
Y4713D01*
X3899D01*
X3959D01*
X3899Y4733D02*
X3959D01*
Y4763D01*
X3949Y4773D01*
X3909D01*
X3899Y4763D01*
Y4733D01*
X3909Y4833D02*
X3899Y4823D01*
Y4803D01*
X3909Y4793D01*
X3949D01*
X3959Y4803D01*
Y4823D01*
X3949Y4833D01*
X3959Y4893D02*
Y4853D01*
X3919Y4893D01*
X3909D01*
X3899Y4883D01*
Y4863D01*
X3909Y4853D01*
X3111Y919D02*
Y979D01*
X3141D01*
X3151Y969D01*
Y949D01*
X3141Y939D01*
X3111D01*
X3171Y979D02*
X3211D01*
Y969D01*
X3171Y929D01*
Y919D01*
X3231Y969D02*
X3241Y979D01*
X3261D01*
X3271Y969D01*
Y959D01*
X3261Y949D01*
X3271Y939D01*
Y929D01*
X3261Y919D01*
X3241D01*
X3231Y929D01*
Y939D01*
X3241Y949D01*
X3231Y959D01*
Y969D01*
X3241Y949D02*
X3261D01*
X4347Y638D02*
X4287D01*
Y668D01*
X4297Y678D01*
X4317D01*
X4327Y668D01*
Y638D01*
X4337Y698D02*
X4347Y708D01*
Y728D01*
X4337Y738D01*
X4297D01*
X4287Y728D01*
Y708D01*
X4297Y698D01*
X4307D01*
X4317Y708D01*
Y738D01*
X4297Y758D02*
X4287Y768D01*
Y788D01*
X4297Y798D01*
X4337D01*
X4347Y788D01*
Y768D01*
X4337Y758D01*
X4297D01*
X4347Y818D02*
Y838D01*
Y828D01*
X4287D01*
X4297Y818D01*
X4357Y868D02*
Y908D01*
X4287Y928D02*
Y968D01*
X4297D01*
X4337Y928D01*
X4347D01*
X4297Y988D02*
X4287Y998D01*
Y1018D01*
X4297Y1028D01*
X4307D01*
X4317Y1018D01*
X4327Y1028D01*
X4337D01*
X4347Y1018D01*
Y998D01*
X4337Y988D01*
X4327D01*
X4317Y998D01*
X4307Y988D01*
X4297D01*
X4317Y998D02*
Y1018D01*
X2899Y28D02*
X2839D01*
Y58D01*
X2849Y68D01*
X2869D01*
X2879Y58D01*
Y28D01*
X2889Y88D02*
X2899Y98D01*
Y118D01*
X2889Y128D01*
X2849D01*
X2839Y118D01*
Y98D01*
X2849Y88D01*
X2859D01*
X2869Y98D01*
Y128D01*
X2849Y148D02*
X2839Y158D01*
Y178D01*
X2849Y188D01*
X2889D01*
X2899Y178D01*
Y158D01*
X2889Y148D01*
X2849D01*
X2899Y248D02*
Y208D01*
X2859Y248D01*
X2849D01*
X2839Y238D01*
Y218D01*
X2849Y208D01*
X2909Y268D02*
Y308D01*
X2839Y328D02*
Y368D01*
X2849D01*
X2889Y328D01*
X2899D01*
X2849Y388D02*
X2839Y398D01*
Y418D01*
X2849Y428D01*
X2859D01*
X2869Y418D01*
X2879Y428D01*
X2889D01*
X2899Y418D01*
Y398D01*
X2889Y388D01*
X2879D01*
X2869Y398D01*
X2859Y388D01*
X2849D01*
X2869Y398D02*
Y418D01*
X1619Y57D02*
X1559D01*
Y87D01*
X1569Y97D01*
X1589D01*
X1599Y87D01*
Y57D01*
X1609Y117D02*
X1619Y127D01*
Y147D01*
X1609Y157D01*
X1569D01*
X1559Y147D01*
Y127D01*
X1569Y117D01*
X1579D01*
X1589Y127D01*
Y157D01*
X1569Y177D02*
X1559Y187D01*
Y207D01*
X1569Y217D01*
X1609D01*
X1619Y207D01*
Y187D01*
X1609Y177D01*
X1569D01*
Y237D02*
X1559Y247D01*
Y267D01*
X1569Y277D01*
X1579D01*
X1589Y267D01*
Y257D01*
Y267D01*
X1599Y277D01*
X1609D01*
X1619Y267D01*
Y247D01*
X1609Y237D01*
X1629Y297D02*
Y337D01*
X1559Y357D02*
Y397D01*
X1569D01*
X1609Y357D01*
X1619D01*
X1569Y417D02*
X1559Y427D01*
Y447D01*
X1569Y457D01*
X1579D01*
X1589Y447D01*
X1599Y457D01*
X1609D01*
X1619Y447D01*
Y427D01*
X1609Y417D01*
X1599D01*
X1589Y427D01*
X1579Y417D01*
X1569D01*
X1589Y427D02*
Y447D01*
X34Y393D02*
Y453D01*
X64D01*
X74Y443D01*
Y423D01*
X64Y413D01*
X34D01*
X94Y403D02*
X104Y393D01*
X124D01*
X134Y403D01*
Y443D01*
X124Y453D01*
X104D01*
X94Y443D01*
Y433D01*
X104Y423D01*
X134D01*
X154Y443D02*
X164Y453D01*
X184D01*
X194Y443D01*
Y403D01*
X184Y393D01*
X164D01*
X154Y403D01*
Y443D01*
X214Y393D02*
X234D01*
X224D01*
Y453D01*
X214Y443D01*
X264Y383D02*
X304D01*
X364Y453D02*
X324D01*
Y423D01*
X344Y433D01*
X354D01*
X364Y423D01*
Y403D01*
X354Y393D01*
X334D01*
X324Y403D01*
X424Y453D02*
X404Y443D01*
X384Y423D01*
Y403D01*
X394Y393D01*
X414D01*
X424Y403D01*
Y413D01*
X414Y423D01*
X384D01*
X1268Y2667D02*
Y2727D01*
X1298D01*
X1308Y2717D01*
Y2697D01*
X1298Y2687D01*
X1268D01*
X1368Y2727D02*
X1328D01*
Y2697D01*
X1348Y2707D01*
X1358D01*
X1368Y2697D01*
Y2677D01*
X1358Y2667D01*
X1338D01*
X1328Y2677D01*
X1428Y2727D02*
X1408Y2717D01*
X1388Y2697D01*
Y2677D01*
X1398Y2667D01*
X1418D01*
X1428Y2677D01*
Y2687D01*
X1418Y2697D01*
X1388D01*
X546Y2502D02*
X486D01*
Y2532D01*
X496Y2542D01*
X516D01*
X526Y2532D01*
Y2502D01*
X536Y2562D02*
X546Y2572D01*
Y2592D01*
X536Y2602D01*
X496D01*
X486Y2592D01*
Y2572D01*
X496Y2562D01*
X506D01*
X516Y2572D01*
Y2602D01*
X496Y2622D02*
X486Y2632D01*
Y2652D01*
X496Y2662D01*
X536D01*
X546Y2652D01*
Y2632D01*
X536Y2622D01*
X496D01*
X546Y2722D02*
Y2682D01*
X506Y2722D01*
X496D01*
X486Y2712D01*
Y2692D01*
X496Y2682D01*
X556Y2742D02*
Y2782D01*
X486Y2842D02*
Y2802D01*
X516D01*
X506Y2822D01*
Y2832D01*
X516Y2842D01*
X536D01*
X546Y2832D01*
Y2812D01*
X536Y2802D01*
X486Y2902D02*
X496Y2882D01*
X516Y2862D01*
X536D01*
X546Y2872D01*
Y2892D01*
X536Y2902D01*
X526D01*
X516Y2892D01*
Y2862D01*
X97Y4364D02*
X37D01*
Y4394D01*
X47Y4404D01*
X67D01*
X77Y4394D01*
Y4364D01*
X87Y4424D02*
X97Y4434D01*
Y4454D01*
X87Y4464D01*
X47D01*
X37Y4454D01*
Y4434D01*
X47Y4424D01*
X57D01*
X67Y4434D01*
Y4464D01*
X47Y4484D02*
X37Y4494D01*
Y4514D01*
X47Y4524D01*
X87D01*
X97Y4514D01*
Y4494D01*
X87Y4484D01*
X47D01*
Y4544D02*
X37Y4554D01*
Y4574D01*
X47Y4584D01*
X57D01*
X67Y4574D01*
Y4564D01*
Y4574D01*
X77Y4584D01*
X87D01*
X97Y4574D01*
Y4554D01*
X87Y4544D01*
X107Y4604D02*
Y4644D01*
X37Y4704D02*
Y4664D01*
X67D01*
X57Y4684D01*
Y4694D01*
X67Y4704D01*
X87D01*
X97Y4694D01*
Y4674D01*
X87Y4664D01*
X37Y4764D02*
X47Y4744D01*
X67Y4724D01*
X87D01*
X97Y4734D01*
Y4754D01*
X87Y4764D01*
X77D01*
X67Y4754D01*
Y4724D01*
X34Y5029D02*
Y5089D01*
X64D01*
X74Y5079D01*
Y5059D01*
X64Y5049D01*
X34D01*
X94Y5039D02*
X104Y5029D01*
X124D01*
X134Y5039D01*
Y5079D01*
X124Y5089D01*
X104D01*
X94Y5079D01*
Y5069D01*
X104Y5059D01*
X134D01*
X154Y5079D02*
X164Y5089D01*
X184D01*
X194Y5079D01*
Y5039D01*
X184Y5029D01*
X164D01*
X154Y5039D01*
Y5079D01*
X214Y5029D02*
X234D01*
X224D01*
Y5089D01*
X214Y5079D01*
X264Y5019D02*
X304D01*
X324Y5079D02*
X334Y5089D01*
X354D01*
X364Y5079D01*
Y5069D01*
X354Y5059D01*
X344D01*
X354D01*
X364Y5049D01*
Y5039D01*
X354Y5029D01*
X334D01*
X324Y5039D01*
X414Y5029D02*
Y5089D01*
X384Y5059D01*
X424D01*
X518Y7022D02*
X458D01*
Y7052D01*
X468Y7062D01*
X488D01*
X498Y7052D01*
Y7022D01*
X508Y7082D02*
X518Y7092D01*
Y7112D01*
X508Y7122D01*
X468D01*
X458Y7112D01*
Y7092D01*
X468Y7082D01*
X478D01*
X488Y7092D01*
Y7122D01*
X468Y7142D02*
X458Y7152D01*
Y7172D01*
X468Y7182D01*
X508D01*
X518Y7172D01*
Y7152D01*
X508Y7142D01*
X468D01*
X518Y7242D02*
Y7202D01*
X478Y7242D01*
X468D01*
X458Y7232D01*
Y7212D01*
X468Y7202D01*
X528Y7262D02*
Y7302D01*
X468Y7322D02*
X458Y7332D01*
Y7352D01*
X468Y7362D01*
X478D01*
X488Y7352D01*
Y7342D01*
Y7352D01*
X498Y7362D01*
X508D01*
X518Y7352D01*
Y7332D01*
X508Y7322D01*
X518Y7412D02*
X458D01*
X488Y7382D01*
Y7422D01*
X17Y7859D02*
Y7919D01*
X47D01*
X57Y7909D01*
Y7889D01*
X47Y7879D01*
X17D01*
X77Y7869D02*
X87Y7859D01*
X107D01*
X117Y7869D01*
Y7909D01*
X107Y7919D01*
X87D01*
X77Y7909D01*
Y7899D01*
X87Y7889D01*
X117D01*
X137Y7909D02*
X147Y7919D01*
X167D01*
X177Y7909D01*
Y7869D01*
X167Y7859D01*
X147D01*
X137Y7869D01*
Y7909D01*
X197D02*
X207Y7919D01*
X227D01*
X237Y7909D01*
Y7899D01*
X227Y7889D01*
X217D01*
X227D01*
X237Y7879D01*
Y7869D01*
X227Y7859D01*
X207D01*
X197Y7869D01*
X257Y7849D02*
X297D01*
X317Y7909D02*
X327Y7919D01*
X347D01*
X357Y7909D01*
Y7899D01*
X347Y7889D01*
X337D01*
X347D01*
X357Y7879D01*
Y7869D01*
X347Y7859D01*
X327D01*
X317Y7869D01*
X407Y7859D02*
Y7919D01*
X377Y7889D01*
X417D01*
X92Y9242D02*
X32D01*
Y9272D01*
X42Y9282D01*
X62D01*
X72Y9272D01*
Y9242D01*
X82Y9302D02*
X92Y9312D01*
Y9332D01*
X82Y9342D01*
X42D01*
X32Y9332D01*
Y9312D01*
X42Y9302D01*
X52D01*
X62Y9312D01*
Y9342D01*
X42Y9362D02*
X32Y9372D01*
Y9392D01*
X42Y9402D01*
X82D01*
X92Y9392D01*
Y9372D01*
X82Y9362D01*
X42D01*
X92Y9422D02*
Y9442D01*
Y9432D01*
X32D01*
X42Y9422D01*
X102Y9472D02*
Y9512D01*
X92Y9532D02*
Y9552D01*
Y9542D01*
X32D01*
X42Y9532D01*
X92Y9622D02*
Y9582D01*
X52Y9622D01*
X42D01*
X32Y9612D01*
Y9592D01*
X42Y9582D01*
X1246Y9559D02*
Y9619D01*
X1276D01*
X1286Y9609D01*
Y9589D01*
X1276Y9579D01*
X1246D01*
X1306Y9569D02*
X1316Y9559D01*
X1336D01*
X1346Y9569D01*
Y9609D01*
X1336Y9619D01*
X1316D01*
X1306Y9609D01*
Y9599D01*
X1316Y9589D01*
X1346D01*
X1366Y9609D02*
X1376Y9619D01*
X1396D01*
X1406Y9609D01*
Y9569D01*
X1396Y9559D01*
X1376D01*
X1366Y9569D01*
Y9609D01*
X1466Y9559D02*
X1426D01*
X1466Y9599D01*
Y9609D01*
X1456Y9619D01*
X1436D01*
X1426Y9609D01*
X1486Y9549D02*
X1526D01*
X1546Y9559D02*
X1566D01*
X1556D01*
Y9619D01*
X1546Y9609D01*
X1636Y9559D02*
X1596D01*
X1636Y9599D01*
Y9609D01*
X1626Y9619D01*
X1606D01*
X1596Y9609D01*
X3945Y9487D02*
Y9547D01*
X3975D01*
X3985Y9537D01*
Y9517D01*
X3975Y9507D01*
X3945D01*
X4005Y9497D02*
X4015Y9487D01*
X4035D01*
X4045Y9497D01*
Y9537D01*
X4035Y9547D01*
X4015D01*
X4005Y9537D01*
Y9527D01*
X4015Y9517D01*
X4045D01*
X4065Y9537D02*
X4075Y9547D01*
X4095D01*
X4105Y9537D01*
Y9497D01*
X4095Y9487D01*
X4075D01*
X4065Y9497D01*
Y9537D01*
X4125D02*
X4135Y9547D01*
X4155D01*
X4165Y9537D01*
Y9527D01*
X4155Y9517D01*
X4145D01*
X4155D01*
X4165Y9507D01*
Y9497D01*
X4155Y9487D01*
X4135D01*
X4125Y9497D01*
X4185Y9477D02*
X4225D01*
X4245Y9487D02*
X4265D01*
X4255D01*
Y9547D01*
X4245Y9537D01*
X4335Y9487D02*
X4295D01*
X4335Y9527D01*
Y9537D01*
X4325Y9547D01*
X4305D01*
X4295Y9537D01*
X1112Y8855D02*
Y8915D01*
X1142D01*
X1152Y8905D01*
Y8885D01*
X1142Y8875D01*
X1112D01*
X1172Y8855D02*
X1192D01*
X1182D01*
Y8915D01*
X1172Y8905D01*
X1262Y8855D02*
X1222D01*
X1262Y8895D01*
Y8905D01*
X1252Y8915D01*
X1232D01*
X1222Y8905D01*
D19*
X992Y7121D02*
X1192D01*
Y5721D02*
Y7121D01*
X992Y5721D02*
X1192D01*
X992D02*
Y7121D01*
X2677Y645D02*
Y845D01*
X4077D01*
Y645D02*
Y845D01*
X2677Y645D02*
X4077D01*
X884Y2927D02*
X1084D01*
Y1527D02*
Y2927D01*
X884Y1527D02*
X1084D01*
X884D02*
Y2927D01*
X723Y9003D02*
Y9203D01*
X2123D01*
Y9003D02*
Y9203D01*
X723Y9003D02*
X2123D01*
D20*
X1127Y5654D02*
Y5687D01*
X1160Y5654D01*
X1169D01*
X1177Y5662D01*
Y5679D01*
X1169Y5687D01*
Y5637D02*
X1177Y5629D01*
Y5612D01*
X1169Y5604D01*
X1160D01*
X1152Y5612D01*
X1144Y5604D01*
X1135D01*
X1127Y5612D01*
Y5629D01*
X1135Y5637D01*
X1144D01*
X1152Y5629D01*
X1160Y5637D01*
X1169D01*
X1152Y5629D02*
Y5612D01*
X1013Y5695D02*
Y5678D01*
Y5687D01*
X1063D01*
X1055Y5695D01*
X1013Y5628D02*
X1063D01*
X1038Y5653D01*
Y5620D01*
X1010Y7180D02*
Y7163D01*
Y7172D01*
X1060D01*
X1052Y7180D01*
X1113Y7220D02*
Y7203D01*
Y7212D01*
X1163D01*
X1155Y7220D01*
X1163Y7145D02*
Y7178D01*
X1138D01*
X1146Y7162D01*
Y7153D01*
X1138Y7145D01*
X1121D01*
X1113Y7153D01*
Y7170D01*
X1121Y7178D01*
X4188Y780D02*
X4155D01*
X4188Y813D01*
Y822D01*
X4180Y830D01*
X4163D01*
X4155Y822D01*
X4205D02*
X4213Y830D01*
X4230D01*
X4238Y822D01*
Y813D01*
X4230Y805D01*
X4238Y797D01*
Y788D01*
X4230Y780D01*
X4213D01*
X4205Y788D01*
Y797D01*
X4213Y805D01*
X4205Y813D01*
Y822D01*
X4213Y805D02*
X4230D01*
X4108Y650D02*
X4125D01*
X4116D01*
Y700D01*
X4108Y692D01*
X4175Y650D02*
Y700D01*
X4150Y675D01*
X4183D01*
X2627Y675D02*
X2644D01*
X2635D01*
Y725D01*
X2627Y717D01*
X2587Y775D02*
X2604D01*
X2595D01*
Y825D01*
X2587Y817D01*
X2662Y825D02*
X2629D01*
Y800D01*
X2645Y808D01*
X2654D01*
X2662Y800D01*
Y783D01*
X2654Y775D01*
X2637D01*
X2629Y783D01*
X1104Y1437D02*
Y1470D01*
X1137Y1437D01*
X1146D01*
X1154Y1445D01*
Y1462D01*
X1146Y1470D01*
Y1420D02*
X1154Y1412D01*
Y1395D01*
X1146Y1387D01*
X1137D01*
X1129Y1395D01*
X1121Y1387D01*
X1112D01*
X1104Y1395D01*
Y1412D01*
X1112Y1420D01*
X1121D01*
X1129Y1412D01*
X1137Y1420D01*
X1146D01*
X1129Y1412D02*
Y1395D01*
X921Y1450D02*
Y1433D01*
Y1442D01*
X971D01*
X963Y1450D01*
X921Y1383D02*
X971D01*
X946Y1408D01*
Y1375D01*
X885Y3022D02*
Y3005D01*
Y3014D01*
X935D01*
X927Y3022D01*
X974Y3026D02*
Y3009D01*
Y3018D01*
X1024D01*
X1016Y3026D01*
X1024Y2951D02*
Y2984D01*
X999D01*
X1007Y2968D01*
Y2959D01*
X999Y2951D01*
X982D01*
X974Y2959D01*
Y2976D01*
X982Y2984D01*
X2168Y9117D02*
X2135D01*
X2168Y9150D01*
Y9159D01*
X2160Y9167D01*
X2143D01*
X2135Y9159D01*
X2185D02*
X2193Y9167D01*
X2210D01*
X2218Y9159D01*
Y9150D01*
X2210Y9142D01*
X2218Y9134D01*
Y9125D01*
X2210Y9117D01*
X2193D01*
X2185Y9125D01*
Y9134D01*
X2193Y9142D01*
X2185Y9150D01*
Y9159D01*
X2193Y9142D02*
X2210D01*
X2140Y9026D02*
X2157D01*
X2148D01*
Y9076D01*
X2140Y9068D01*
X2207Y9026D02*
Y9076D01*
X2182Y9051D01*
X2215D01*
X667Y9045D02*
X684D01*
X675D01*
Y9095D01*
X667Y9087D01*
X616Y9187D02*
X633D01*
X624D01*
Y9237D01*
X616Y9229D01*
X691Y9237D02*
X658D01*
Y9212D01*
X674Y9220D01*
X683D01*
X691Y9212D01*
Y9195D01*
X683Y9187D01*
X666D01*
X658Y9195D01*
M02*
