M48
;Layer_Color=9474304
;FILE_FORMAT=2:3
INCH,LZ
;TYPE=PLATED
T1F00S00C0.010
T2F00S00C0.028
T3F00S00C0.035
T4F00S00C0.177
%
T01
X00497Y00095
X00471Y00207
Y00307
Y00407
X00511Y00485
X00615Y00522
X00665Y005
X00711Y00482
X00761Y0047
X00811Y00436
X00859Y00433
X0091Y00397
Y00497
X00859Y00533
X00811Y00536
X00712Y00408
X00664Y0041
X00615Y00433
X00411Y00539
X00336Y00507
X00276Y00505
X00178Y00504
X00102Y00507
X00958Y00483
X01007Y00457
X01057Y00439
X01106Y00436
X01158Y00411
X01204Y00419
X01255Y0042
X01303Y004
Y00497
X01256Y00547
X01204Y00519
X01158Y00491
X01106Y00536
X01057Y00539
X00958Y00383
X01401Y00396
X01402Y00474
X01519Y00439
X01624Y00528
X01676Y00388
X01758Y00454
X01858Y00417
X01967Y00423
X02036Y00422
X02049Y00504
X01964Y00502
X01845Y00538
X02142Y00503
X02136Y00422
X02236
X02238Y005
X02331Y00499
X02336Y00422
X02436
X02417Y00497
X01741Y00261
X01776Y00181
X01775Y00109
X01782Y00042
X01672Y00185
X01583Y0011
X01585Y00309
X02536Y00422
X02605Y00417
X02603Y00495
X02684Y00503
X02758Y00494
X02779Y00402
X02863Y00405
X0297Y00406
X02977Y00493
X0288Y00502
X03025Y00552
X03077
Y00476
X03165Y00465
X03251Y00476
Y00552
X0335Y0048
X03322Y00409
X03427Y00398
X03451Y00476
Y00552
X03577
Y00476
X03677
Y00552
X03777
Y00476
X03829Y0041
X03928Y00409
X03917Y00476
X03893Y0054
X0402Y00541
X04047Y00481
X04016Y00402
X03725Y00397
X0362Y004
X03522Y00409
X0322Y0038
X03258Y00289
X03262Y00179
X03259Y00115
X03276Y00052
X02921Y00182
X02998Y00263
X02922Y00339
X02856Y00277
X02837Y00102
X02676Y00405
X0251Y00496
X03087Y00348
X0411Y00438
X04157Y00426
X04208Y00422
X04295Y00395
X04284Y00476
X04306Y00309
X043Y00235
X04312Y00158
X04307Y00088
X04248Y00553
X04246Y00643
X04142Y00627
X04051Y00625
X04117Y00558
X04181Y0072
X04123Y00781
X04121Y00846
X0405Y00879
X03968Y00867
X03868
X03768
X03668
X03568
X03468
X03368
X03268
X03168
X03068
X02979Y00906
X02896Y00869
X02904Y00981
X02815Y00956
X02765Y00906
X02658Y0093
X02655Y00845
X02557Y00844
X02558Y0093
X02538Y01015
Y01107
X02638
Y01015
X02738
Y01107
X02834Y01054
X02869Y00598
X02972Y00611
X03081Y0062
X03152Y00621
Y00554
X03255Y0062
X03354Y00624
X0335Y00556
X03455Y0062
X03581
X03681
X03781
X03921
X02702Y00612
X02611
X02511
X02531Y00745
X02631
X02508Y01559
X02578Y01629
X02648Y01699
X02718Y01769
X02788Y01839
X02858Y01909
X02928Y01979
X02998Y02049
X02831Y02047
X02761Y01977
X02691Y01907
X02621Y01837
X02551Y01767
X02528Y01904
X02598Y01974
X02668Y02044
X02738Y02114
X02581Y02102
X02511Y02032
X02441Y01962
X02371Y01892
X02301Y01822
X02231Y01752
X02161Y01682
X02091Y01612
X02021Y01542
X01951Y01472
X01881Y01402
X01811Y01332
X01741Y01262
X01671Y01192
X01601Y01122
X01531Y01052
X01461Y00982
X01391Y00912
X01321Y00842
X01251Y00772
X01204Y00719
X01155Y00711
X01106Y00736
X01057Y00739
X01007Y00757
X00958Y00783
Y00683
X01007Y00657
X01057Y00639
X01106Y00636
X01155Y00611
X01204Y00619
X01252Y00668
X01304Y00605
X01353Y00622
X01422Y00595
X01711Y00612
X01811
X01935Y00615
X02011Y00612
X02111
X02211
X02311
X02411
X02431Y00745
X02331
X02231
X02131
X02031
X01931
X01831
X01731
X01857Y00844
X01858Y0093
X01958
X01957Y00844
X02057
X02058Y0093
X02158
X02157Y00844
X02257
X02258Y0093
X02358
X02357Y00844
X02457
X02458Y0093
X02438Y01015
Y01107
X02338
Y01015
X02238
Y01107
X02138
X02088Y01139
X02158Y01209
X02228Y01279
X02298Y01349
X02368Y01419
X02438Y01489
X02341Y01557
X02271Y01487
X02201Y01417
X02131Y01347
X02061Y01277
X01991Y01207
X01921Y01137
X01938Y01015
X01838
X01758Y01134
X01828Y01204
X01898Y01274
X01968Y01344
X02038Y01414
X02108Y01484
X02178Y01554
X02248Y01624
X02318Y01694
X02388Y01764
X02458Y01834
X02481Y01697
X02411Y01627
X01979Y01642
X0188Y01675
X01909Y01572
X0181Y01605
X01839Y01502
X0174Y01535
X01769Y01432
X0167Y01465
X01699Y01362
X016Y01395
X01629Y01292
X0153Y01325
X01559Y01222
X0146Y01255
X01489Y01152
X0139Y01185
X01419Y01082
X0132Y01115
X01349Y01012
X0125Y01045
X01279Y00942
X0118Y00975
X01209Y00872
X0111Y00905
X01139Y00802
X0104Y00835
X00945Y0088
X01015Y0095
X01085Y0102
X01155Y0109
X01225Y0116
X01295Y0123
X01365Y013
X01435Y0137
X01505Y0144
X01575Y0151
X01645Y0158
X01715Y0165
X01785Y0172
X01855Y0179
X01925Y0186
X01995Y0193
X02065Y02
X02135Y0207
X0216Y01955
X02189Y01852
X0209Y01885
X02119Y01782
X0202Y01815
X02049Y01712
X0195Y01745
X0169Y0177
X01595Y01805
X0162Y017
X01525Y01735
X0155Y0163
X01455Y01665
X0148Y0156
X01385Y01595
X0141Y0149
X01315Y01525
X0134Y0142
X01245Y01455
X0127Y0135
X01175Y01385
X012Y0128
X01105Y01315
X0113Y0121
X01035Y01245
X0106Y0114
X00965Y01175
X0099Y0107
X00935Y0129
X01005Y0136
X0099Y01465
X01075Y0143
X01145Y015
X01115Y01587
X01124Y01679
X01187Y01694
X01257Y01764
X01327Y01834
X01397Y01904
X01467Y01974
X01537Y02044
X01607Y02114
X01635Y0199
X01565Y0192
X01495Y0185
X01425Y0178
X01355Y0171
X01285Y0164
X01215Y0157
X0112Y01772
X01118Y01862
X01116Y01969
Y02069
X01705Y0206
X01735Y01945
X0176Y0184
X01665Y01875
X0183Y0191
X01805Y02015
X019Y0198
X01875Y02085
X0197Y0205
X0223Y02025
X02259Y01922
X02329Y01992
X023Y02095
X02399Y02062
X02138Y01015
X02038
X01007Y00557
X00958Y00583
X0091Y00597
X00859Y00633
X00811Y00636
X00761Y0067
X00711Y00682
X00665Y007
X00615Y00722
Y00822
X00665Y008
X00711Y00782
X00761Y0077
X00811Y00736
X00859Y00733
X0091Y00697
Y00797
X00859Y00833
X00811Y00836
X00761Y0087
X00711Y00882
X00665Y009
X00615Y00922
X00537Y00881
Y00981
X00539Y01124
X00628Y0111
X00624Y01215
X00553Y01242
X00543Y01337
X00673Y01365
X00648Y01443
X00777Y01463
X0089Y01469
X00874Y01349
X00753Y0134
X0073Y01223
X00795Y0115
X00725Y0108
X00655Y0101
X00755Y00965
X0085Y0093
X00825Y01035
X0092Y01
X00895Y01105
X00865Y0122
X00835Y01618
X00755Y01634
X00714Y01705
X00683Y01782
X00669Y01861
X0065Y01945
X00515Y01941
X00441Y02002
X00401Y02091
X00524Y02088
X00671Y02089
X00842Y02041
X00835Y01938
X0085Y01844
X00854Y01733
X00551Y01648
X00487Y01685
X00495Y01788
X00408Y01838
X00319Y01738
X00371Y01666
X00382Y0155
X00471Y01545
X00539Y01512
X00618Y01575
X00282Y01584
X00187Y01562
X00112Y01571
X00051Y01556
X00101Y01988
X00243Y01975
X00401Y00813
X00537Y00781
Y00681
Y00581
X00615Y00622
X00665Y006
X00711Y00582
X00761Y0057
X0045Y00616
X004Y02188
X00404Y02293
X00409Y02392
Y02492
Y02592
Y02692
Y02792
Y02892
Y02992
X00356Y03033
X00363Y03102
X00436Y03119
X00543Y03127
X00593Y03073
X00519Y03028
X00614Y02935
X00677Y02995
X00762Y03043
X00855Y03061
X00806Y03116
X00739Y03185
X00676Y03133
X0065Y03275
X0059Y03219
X00491Y03192
X00518Y03296
X0058Y03345
X00565Y0343
X00635Y0345
X0073
X00685Y03395
Y03535
X006Y0355
X00585Y0365
X00495Y0366
X00445Y0361
X00395Y03655
Y03555
X0048Y03545
X00465Y03475
X00395Y0344
X00457Y0336
X00401Y03242
X0028Y03243
X00304Y0317
X00203Y03185
X0022Y0311
X0016Y0305
X00096
X00056Y0303
X00292Y03048
X00219Y03295
X00137Y03251
X00076Y03287
X00765Y03325
X008Y0329
X0085Y0324
X0086Y0334
X0082Y03385
X00865Y03435
X0091Y03475
X00915Y0338
Y0329
X00905Y03185
X00863Y02958
X00757Y02914
X0071Y02836
X00839Y02831
X00813Y02746
X00839Y02594
X00768Y02534
X00695Y02472
X00616Y02394
X0052
X0051Y02286
X00521Y02184
X00667Y02183
X00644Y02283
X008Y0229
X00845Y02232
X0085Y02144
X00851Y02463
X00768Y02385
X00785Y0352
X00825Y03545
X00755Y036
X007Y0364
X00845Y0367
X00895Y0362
X0094Y0357
X00995Y03565
X0104Y03615
X01085Y0366
X0118Y0365
X0114Y03605
X01095Y0356
X0105Y0351
X0101Y03465
X00965Y0342
X0098Y0331
X0097Y0322
X00965Y0313
X0104Y0315
X01095Y03095
X0118Y0311
X0115Y0315
X0119Y03195
X01243Y03239
X0127Y03113
X01274Y02961
X01275Y0285
X01155Y02845
X0118Y0292
X01105Y029
X0107Y02925
X01065Y02995
X0111Y03005
X0118Y03015
X01005Y0305
X01055Y03245
X011Y0329
X01153Y03334
X01084Y03405
X0103Y0336
X0109Y0278
X01193Y02752
X01116Y02669
Y02569
Y02469
Y02369
Y02269
Y02169
X01677Y02184
X01747Y02254
X01817Y02324
X01887Y02394
X01957Y02464
X02027Y02534
X02097Y02604
X02167Y02674
X02237Y02744
X02307Y02814
X02377Y02884
X02447Y02954
X02475Y0283
X02405Y0276
X02335Y0269
X02265Y0262
X02195Y0255
X02125Y0248
X02055Y0241
X01985Y0234
X01915Y0227
X01845Y022
X01775Y0213
X01945Y02155
X0204Y0212
X02015Y02225
X0211Y0219
X02085Y02295
X0218Y0226
X02155Y02365
X0225Y0233
X02225Y02435
X0232Y024
X02295Y02505
X0239Y0247
X02365Y02575
X0246Y0254
X02435Y02645
X02485Y0242
X02415Y0235
X02345Y0228
X02275Y0221
X02205Y0214
X0237Y02165
X02469Y02132
X0244Y02235
X02539Y02202
X0251Y02305
X02609Y02272
X0258Y02375
X02679Y02342
X0265Y02445
X02749Y02412
X0272Y02515
X02819Y02482
X0279Y02585
X02889Y02552
X0286Y02655
X02959Y02622
X0293Y02725
X03029Y02692
X03Y02795
X03099Y02762
X0307Y02865
X03126Y0293
X03054Y02988
X03124Y03058
X03196Y03
X03194Y03128
X03266Y0307
X03264Y03198
X03336Y0314
X03334Y03268
X03406Y0321
X03404Y03338
X03476Y0328
X03474Y03408
X03546Y0335
X03544Y03478
X03616Y0342
X03614Y03548
X03635Y03633
X03753Y03632
X03762Y03531
X03799Y03462
X0382Y03376
X03729Y03392
X03755Y03309
X03659Y03322
X03589Y03252
X03519Y03182
X03449Y03112
X03379Y03042
X03309Y02972
X03239Y02902
X03169Y02832
X03211Y02732
X03141Y02662
X03071Y02592
X03001Y02522
X02931Y02452
X02861Y02382
X02791Y02312
X02721Y02242
X02651Y02172
X02808Y02184
X02878Y02254
X02948Y02324
X03018Y02394
X03088Y02464
X03158Y02534
X03228Y02604
X03298Y02674
X03368Y02744
X03438Y02814
X03508Y02884
X03578Y02954
X03648Y03024
X03718Y03094
X03788Y03164
X03701Y03222
X03631Y03152
X03561Y03082
X03491Y03012
X03421Y02942
X03351Y02872
X03281Y02802
X03321Y02537
X03251Y02467
X03181Y02397
X03111Y02327
X03041Y02257
X02971Y02187
X02901Y02117
X03068Y02119
X03138Y02189
X03208Y02259
X03278Y02329
X03348Y02399
X03418Y02469
X03488Y02539
X03558Y02609
X03628Y02679
X03698Y02749
X03768Y02819
X03838Y02889
X03908Y02959
X03956Y0306
X03881Y03097
X03811Y03027
X03741Y02957
X03671Y02887
X03601Y02817
X03531Y02747
X03461Y02677
X03391Y02607
X02695Y0263
X02625Y0256
X02555Y0249
X0253Y0261
X02505Y02715
X026Y0268
X02575Y02785
X0267Y0275
X02645Y02855
X0274Y0282
X02715Y02925
X0281Y0289
X02785Y02995
X0288Y0296
X02849Y03063
X0295Y03031
X02919Y03133
X0302Y03101
X02989Y03203
X0309Y03171
X03059Y03273
X0316Y03241
X03129Y03343
X0323Y03311
X03199Y03413
X033Y03381
X03269Y03483
X0337Y03451
X03339Y03553
X0344Y03521
X03409Y03623
X0351Y03591
X03296Y0365
X0316
X03226Y0358
X0309
X03156Y0351
X0302
X03086Y0344
X0295
X03016Y0337
X0288
X02946Y033
X0281
X02876Y0323
X0274
X02806Y0316
X0267
X02685Y0304
X02736Y0309
X026
X02615Y0297
X02545Y029
X02517Y03024
X02765Y027
X02835Y0277
X02905Y0284
X02975Y0291
X03951Y03167
X03917Y03287
X0398Y0335
Y03444
X03905Y03442
X03869Y03537
X03871Y03633
X0398
Y03538
X03686Y0349
X03719Y03717
X03735Y03785
Y0387
X03815
X03795Y03925
X03815Y04
X0375Y0402
X0367
X0357
X0347
X0337
X0327
X0317
X0307
X0297
X0287
X0277
X0267
X0257
X02575Y0412
X02675
X02775
X02875
X02975
X03075
X03175
X03275
X03375
X03475
X03575
X03675
X03755Y04118
X03765Y04195
X03795Y04235
X03825Y04275
X03865Y043
X03895Y04345
X03925Y04385
X0385Y0439
X03875Y04435
X03805
X03825Y04485
X03755
X03775Y04535
X0371Y0453
X0373Y0458
X03665Y04575
X03685Y04625
X0364Y04665
X0365Y04745
X03695Y047
X0374Y04655
X03785Y0461
X0383Y04565
X03875Y0452
X0392Y04475
X03965Y0443
X0398Y04325
Y04231
Y04136
X03911Y04137
X0383Y0413
X0384Y0419
X03885Y04215
X03895Y04042
X0398
Y03948
X03895Y03925
Y0387
X0395Y0382
X0398Y03726
X03829Y03718
X03835Y03785
X03635
X0364Y0387
X03595Y03925
X03495
X0352Y03865
X03535Y03785
X03505Y03717
X03611Y03715
X03435Y03785
X0342Y03865
X03395Y03925
X03295
X0332Y03865
X03335Y03785
X03366Y0372
X0323
X03235Y03785
X03135
X03035
X02935
X02835
X02735
X02635
X02535
X02515Y03865
X02495Y03925
X02595
X02615Y03865
X02715
X02695Y03925
X02795
X02815Y03865
X02915
X02895Y03925
X02995
X03015Y03865
X03115
X03095Y03925
X03195
X03215Y03865
X0318Y0422
Y0432
Y0442
X0308
X0298
X0288
X0278
X0268
X0258
Y0432
X0268
X0278
X0288
X0298
X0308
Y0422
X0298
X0288
X0278
X0268
X0258
X02595Y04515
X02495
X0249Y04615
X0259
X0269
X0279
X0289
X0299
X0309
X0319
X0329
X0339
X0349
X0359
X03595Y04515
X03495
X03395
X03295
X03195
X03095
X02995
X02895
X02795
X02695
X02675Y0471
X02575
X0253Y048
X0263
X0273
X0283
X0293
X0303
X0313
X0323
X0333
X0343
X0353
X03605Y0479
X03575Y0471
X03475
X03375
X03275
X03175
X03075
X02975
X02875
X02775
X0328Y0442
X0338
X0348
X0358
X0368
Y04485
X03745Y0442
X03755Y04345
X03805Y04365
X0375Y0428
X0368Y0432
X0358
X0348
X0338
X0328
Y0422
X0338
X0348
X0358
X0368
X03695Y03925
X02395
X02415Y03865
X02435Y03785
X02335
X02235
X02135
X02035
X01935
X01835
X01735
X01635
X01535
X01435
X01365
X01305
X01265Y0374
X0122Y03695
X01125Y03705
X01165Y0375
X0121Y03795
X0125Y0384
X01315Y03865
X01295Y03925
X01195
X01095
X0104Y0387
X0099Y03815
X00945Y03765
X0097Y0393
Y0402
X0107
X0117
X0127
X0137
X0147
X0157
X0167
X0177
X0187
X0197
X0207
X0217
X0227
X0237
X0247
X02475Y0412
X02375
X02275
X02175
X02075
X01975
X01875
X01775
X01675
X01575
X01475
X01375
X01275
X01175
X01075
X00975
X0098Y0422
Y0432
Y0442
X0108
X0118
X0128
X0138
X0148
X0158
X0168
X0178
X0188
X0198
X0208
X0218
X0228
X0238
X0248
Y0432
X0238
X0228
X0218
X0208
X0198
X0188
X0178
X0168
X0158
X0148
X0138
X0128
X0118
X0108
Y0422
X0118
X0128
X0138
X0148
X0158
X0168
X0178
X0188
X0198
X0208
X0218
X0228
X0238
X0248
X02395Y04515
X02295
X02195
X02095
X01995
X01895
X01795
X01695
X01595
X01495
X01395
X01295
X01195
X01095
X00995
X0099Y04615
X0109
X0119
X0129
X0139
X0149
X0159
X0169
X0179
X0189
X0199
X0209
X0219
X0229
X0239
X02375Y0471
X02275
X02175
X02075
X01975
X01875
X01775
X01675
X01575
X01475
X01375
X01275
X01175
X01075
X00975
X0093Y048
X0103
X0113
X0123
X0133
X0143
X0153
X0163
X0173
X0183
X0193
X0203
X0213
X0223
X0233
X0243
X02475Y0471
X02295Y03925
X02315Y03865
X02215
X02195Y03925
X02095
X02115Y03865
X02015
X01995Y03925
X01895
X01915Y03865
X01815
X01795Y03925
X01695
X01715Y03865
X01615
X01595Y03925
X01495
X01515Y03865
X01415
X01395Y03925
X0114Y0522
X0107Y0515
X01005Y052
X0094Y0514
X01Y0508
X0093Y0501
X0087Y0507
X008Y05
X0086Y0494
X0079Y0487
X0083Y048
X0073
X00755Y0472
X00805Y04665
X00845Y04605
X0086Y04525
X00815Y04485
X00775Y0444
X0073Y04395
X0069Y0435
X0065Y04305
X0071Y0428
X0067Y04235
X0063Y0419
X0056Y0421
X0052Y04165
X00585Y04145
X0054Y04095
X005Y0405
X00455Y04005
X00535Y0399
X00495Y03945
X0045Y039
X00405Y0386
X00415Y0377
X0046Y0381
X00505Y03855
X00545Y039
X0063Y03895
X00675Y0394
X00715Y03985
X00755Y0403
X00675Y0404
X00715Y04085
X00625
X00665Y0413
X00705Y04175
X0075Y0422
X0079Y04265
X00755Y04325
X00795Y0437
X00855Y0432
X0086Y0442
X00865Y04225
X008Y04175
X0076Y0413
X0084Y0412
X008Y04075
X0083Y04005
X0087Y04045
X00865Y03935
X0079Y0396
X0075Y03915
X00705Y0387
X0066Y0382
X0062Y03775
X00575Y0373
X005Y03755
X00545Y038
X00585Y03845
X0059Y0395
X00635Y03995
X0058Y0404
X00475Y0412
X00445Y0419
X0049Y04235
X0053Y0428
X0045Y04295
X0049Y0434
X004Y04345
X0044Y0439
X00485Y0444
X0053Y04485
X0057Y0453
X0061Y04575
X00655Y0462
X00695Y04665
X00745Y04615
X00705Y0457
X0066Y04525
X0062Y0448
X0058Y04435
X00535Y0439
X00575Y0433
X0062Y04375
X0066Y0442
X007Y04465
X00745Y0451
X00785Y04555
X00875Y0471
X00725Y0493
X00655Y0486
X00585Y0479
X00515Y0472
X00445Y0465
X00375Y0458
X00305Y0451
X00235Y0444
X00165Y0437
X00095Y043
X00355
X00405Y0425
X00415Y0407
X00605Y0426
X00805Y03875
X00905Y03855
X0084Y0379
X00745Y0381
X00775Y03725
X0068Y03745
X00895Y03715
X00794Y05186
X0065
X00513Y05188
X00396Y0519
X00348Y05145
X00284Y05141
X00208Y05143
X00134Y05145
X0006Y05165
X00405Y05308
X00416Y05456
X00485Y05523
X00547Y05595
X00489Y05684
X0039Y05682
X00386Y05779
X00393Y05878
X00396Y05951
X00385Y06
Y0605
Y061
X00384Y06159
X00499Y06166
X005Y061
X0051Y0605
Y06
X00519Y05951
X00533Y05878
X00583Y05782
X00695Y0578
X0077Y05744
X00829Y05704
X00864Y05575
X0076Y0547
X00673Y05551
X00628Y05675
X00705Y05885
X0068Y05955
X0063Y06
X00675Y0605
X00635Y061
X00633Y06168
X00642Y06281
X00669Y06374
X00769Y06372
X00843Y06375
X00923Y06441
X00885Y0627
X009Y0617
X00895Y06075
X0082Y0609
X00815Y0619
X0073Y06236
X00745Y0612
X00747Y06027
X00797Y05974
X00796Y05878
X00898Y05977
X00895Y05335
X00805Y05268
X00613Y05262
X00597Y05311
X00526Y05409
X00397Y05585
X00463Y06237
X00294Y06241
X00187Y06218
X00103Y06222
X00393Y06353
X00523Y06371
X0053Y0659
Y06655
X0063
Y0659
X0073
Y06655
X0083
Y0659
X0081Y0674
X0091
X0071
X0061
X0051
X0041
X0043Y06655
Y0659
X0033
Y06655
X0023
Y0659
X0016Y06615
X00105Y0667
X0093Y06655
Y0659
X0097Y0635
Y06255
Y0615
X00968Y06053
X00948Y05926
X00968Y05847
X00955Y05663
X01105Y0563
Y0553
Y0543
X011Y05345
X01075Y0527
X00989Y05296
X00945Y05385
X00995Y05435
X012Y05475
Y05575
Y05675
X01226Y05777
Y05877
Y05977
Y06077
Y06177
Y06277
Y06377
Y06477
Y06577
Y06677
Y06777
X01695Y0678
X01765Y0671
X01835Y0677
Y0664
X01905Y067
Y0657
X01975Y0663
Y065
X02045Y0656
Y0643
X02115Y0649
Y0636
X02185Y0642
Y0629
X02255Y0635
Y0622
X02325Y0628
Y0615
X02395Y0621
Y0608
X02465Y0614
Y0601
X0243Y06335
X0236Y06405
X0229Y06475
X0222Y06545
X0215Y06615
X0208Y06685
X0201Y06755
X0214Y06765
X0221Y06695
X02285Y06755
X0228Y06625
X02355Y06685
X0235Y06555
X02425Y06615
X0242Y06485
X02435Y0675
X012Y05375
Y05295
X0281Y0566
X0288Y05645
X02885Y0573
X02975Y0572
X0298Y05785
X03055Y0578
X0307Y05725
X0308Y05645
X0318
X0317Y05725
X0316Y0578
X0327
Y05725
X0328Y05645
X0338
X0337Y05725
Y0578
X0347
Y05725
X0348Y05645
X0358
X0357Y05725
Y0578
X0367
Y05725
X0368Y05645
X0378
X0377Y05725
Y0578
X0387
X0384Y05725
X0388Y05645
X0396
X03965Y05732
Y05827
Y0592
X03895
X03899Y05873
X03815
Y0592
X03827Y05968
X03798Y06016
X03755Y06063
X03715Y06115
X03815
X03855Y06063
X03898Y06016
X03913Y05969
X03969Y06015
X03975Y0611
X0391
X03935Y0621
X0395Y06265
X0392Y06315
X03976Y06329
X03979Y06425
X03895
X0384
X03785
X0373
X0367Y06445
X03705Y065
X03755Y0655
X03815Y0652
X03875
X03935
X03978
X03981Y06614
X0392Y06615
X0385Y0665
X0389Y06705
X03935Y06755
X03981Y0671
X0384Y06755
X038Y067
X0375Y0675
X037Y068
X03655Y06745
Y0665
X03705Y06695
Y066
X03755Y06645
X03805Y06595
X03655Y0655
X03605Y066
Y067
Y06795
X03555Y0675
X03505Y068
Y067
X03555Y0665
X0351Y0659
X03465Y06545
X0356Y0654
X03515Y06495
X0361Y0649
X03565Y06445
X03615Y06395
X0357Y06315
X0367
X03755
X0384
X0385Y0621
X0376
X0368
X03625Y0626
X0357Y06175
X03615Y06115
X03655Y06063
X03698Y06016
X03727Y05968
X0372Y0592
X03719Y05873
X03633Y05874
X0363Y0592
X03627Y05968
X03598Y06016
X03498
X03527Y05968
X0353Y0592
X03533Y05874
X03433
X0343Y0592
X03427Y05968
X0336Y0597
X0333Y0592
X03333Y05874
X03233
X03265Y0593
X03205Y0598
X03135Y0605
X03065Y0612
X02995Y0619
X02925Y0626
X02855Y0633
X02785Y064
X02715Y0647
X02645Y0654
X02575Y0661
X02505Y0668
X0261Y06715
X0268Y06645
X0275Y06575
X0282Y06505
X0289Y06435
X0296Y06365
X0303Y06295
X031Y06225
X0317Y06155
X0324Y06085
X0331Y06015
X03435Y0603
X0347Y0613
X03535Y06075
X03515Y06225
X03465Y0628
X03515Y06365
X03465Y06415
X03415Y06465
X03365Y06515
X03315Y06565
X03265Y06615
X03215Y06665
X03165Y06715
X03115Y06765
X03215Y06795
X0331Y0679
X03265Y06745
X0336Y0674
X03315Y06695
X0341Y0669
X03365Y06645
X0346Y0664
X03415Y06595
X03455Y0675
X03405Y068
X03395Y0635
X03325Y0642
X03255Y0649
X03185Y0656
X03115Y0663
X03045Y067
X02975Y0677
X0291Y0669
X02875Y0659
X0298Y0662
X02945Y0652
X0305Y0655
X03015Y0645
X0312Y0648
X03085Y0638
X0319Y0641
X03155Y0631
X0326Y0634
X03225Y0624
X0333Y0627
X03295Y0617
X034Y062
X03365Y061
X03125Y05915
X0305Y05855
X03055Y05985
X0298Y05925
X02985Y06055
X0291Y05995
X02915Y06125
X0284Y06065
X02845Y06195
X0277Y06135
X02775Y06265
X027Y06205
X02705Y06335
X0263Y06275
X02635Y06405
X0256Y06345
X02565Y06475
X0249Y06415
X02495Y06545
X025Y06265
X0257Y06195
X0264Y06125
X0271Y06055
X0278Y05985
X0285Y05915
X0292Y05845
X02815Y0579
X02745Y0573
Y0586
X02675Y058
Y0593
X02605Y0587
Y06
X02535Y0594
Y0607
X0254Y06785
X02665Y068
X02735Y0673
X0284Y0676
X02805Y0666
X0298Y05645
X03065Y06815
X03165Y06845
X0313Y06895
X03225
X0326Y0684
X03355Y0685
X03325Y069
Y07
Y071
Y072
Y073
Y074
Y075
Y076
Y077
Y078
Y079
Y08
Y081
Y082
Y083
X03425
Y082
Y081
Y08
Y079
Y078
Y077
Y076
Y075
Y074
Y073
Y072
Y071
Y07
Y069
X03455Y0685
X03555Y06845
X03525Y069
X0362
X0365Y0685
X0374Y06855
X0372Y069
X03815
X03835Y06855
X0379Y06805
X03885
X03935Y069
Y07
Y071
Y072
Y073
Y074
Y075
Y076
Y077
Y078
Y079
Y08
Y081
Y082
Y083
X03815
X0372
X0362
X03525
Y082
X0362
Y081
X03525
Y08
X0362
Y079
X03525
Y078
X0362
Y077
X03525
Y076
X0362
Y075
X03525
Y074
X0362
Y073
X03525
Y072
X0362
Y071
X03525
Y07
X0362
X0372
X03815
Y071
X0372
Y072
X03815
Y073
X0372
Y074
X03815
Y075
X0372
Y076
X03815
Y077
X0372
Y078
X03815
Y079
X0372
Y08
X03815
Y081
X0372
Y082
X03815
X03225Y08195
X0313
Y08295
X03225
Y08095
X0313
Y07995
X03225
Y07895
X0313
Y07795
X03225
Y07695
X0313
Y07595
X03225
Y07495
X0313
Y07395
X03225
Y07295
X0313
Y07195
X03225
Y07095
X0313
Y06995
X03225
X0302
X0292
Y07095
Y07195
Y07295
Y07395
Y07495
Y07595
Y07695
Y07795
Y07895
Y07995
Y08095
Y08195
Y08295
X0302
Y08195
Y08095
Y07995
Y07895
Y07795
Y07695
Y07595
Y07495
Y07395
Y07295
Y07195
Y07095
X02995Y06895
X02905Y0684
X02835Y0691
X0283Y0704
X02765Y0698
X02695Y0705
X0276Y07125
X02815Y0719
Y0729
Y0739
Y0749
Y0759
Y0769
Y0779
Y0789
Y0799
Y0809
Y0819
Y0829
X0269Y0719
X0262Y0725
X02555Y0719
X0255Y0732
X0249Y0711
X0256Y0704
X02525Y0694
X0263Y0697
X02595Y0687
X027Y069
X0277Y0683
X02625Y0712
X0242Y0718
X02385Y0708
X0233Y06995
X02295Y0689
X02365Y0682
X0247Y06855
X024Y06925
X02455Y0701
X0226Y07065
X02225Y0696
X02155Y0703
X02085Y071
X02015Y0717
X01945Y0724
X01875Y0731
X01805Y0738
X01735Y0745
X01665Y0752
X01595Y0759
X01525Y0766
X01455Y0773
X01385Y078
X01315Y0787
X01245Y0794
X01175Y0801
X01105Y0808
X01035Y0815
X00965Y0822
X0107Y08255
X0114Y08185
X0121Y08115
X0128Y08045
X0135Y07975
X0142Y07905
X0149Y07835
X0156Y07765
X0163Y07695
X017Y07625
X0177Y07555
X0184Y07485
X0191Y07415
X0198Y07345
X0205Y07275
X0212Y07205
X0219Y07135
X02315Y0715
X0235Y0725
X02245Y0722
X0228Y0732
X02175Y0729
X0221Y0739
X02105Y0736
X0214Y0746
X02035Y0743
X0207Y0753
X01965Y075
X02Y076
X01895Y0757
X0193Y0767
X01825Y0764
X0186Y0774
X01755Y0771
X0179Y0781
X01685Y0778
X0172Y0788
X01615Y0785
X0165Y0795
X01545Y0792
X0158Y0802
X01475Y0799
X0151Y0809
X01405Y0806
X0144Y0816
X01335Y0813
X0137Y0823
X01265Y082
X013Y083
X01195Y0827
X01125Y0834
X01Y08325
X00955Y08085
X01025Y08015
X01095Y07945
X01165Y07875
X01235Y07805
X01305Y07735
X01375Y07665
X01445Y07595
X01515Y07525
X0151Y07395
X01585Y07455
X0158Y07325
X01655Y07385
X0165Y07255
X01725Y07315
X0172Y07185
X01795Y07245
X0179Y07115
X01865Y07175
X0186Y07045
X01935Y07105
X0193Y06975
X02005Y07035
X02Y06905
X02075Y06965
X0207Y06835
X02145Y06895
X02215Y06825
X0194
X0187Y06895
X018Y06965
X0173Y07035
X0166Y07105
X0159Y07175
X0152Y07245
X01485Y0712
Y0699
X01555Y0705
Y0692
X01625Y0698
Y0685
X01695Y0691
X01765Y0684
X01415Y0706
X0132Y071
X01285Y07065
X0125Y0703
X0122Y07
X0121Y07105
X01245Y07145
X01265Y07195
X01245Y07255
X01185Y0726
Y07215
Y07165
X0119Y07305
X01092Y07221
X0094Y07162
X00933Y07286
X00934Y07418
X0099Y075
X0094Y0756
X01165Y0757
X0123Y0751
X01275Y07595
X01175Y077
X01095Y0764
X0103Y0771
X0108Y07795
X00955Y0778
X0098Y07895
X0108Y07425
X01355Y0741
X01405Y07465
X01425Y07335
X01355Y0715
X01226Y06877
X00971Y06983
X02485Y0726
X0248Y0739
X02415Y0733
X0241Y07465
X02345Y074
X02275Y0747
X0233Y0755
X02205Y0754
X0226Y0762
X02135Y0761
X0219Y0769
X02065Y0768
X0212Y0776
X01995Y0775
X0205Y0783
X01925Y0782
X0198Y079
X01855Y0789
X0191Y0797
X01785Y0796
X0184Y0804
X01715Y0803
X0177Y0811
X01645Y081
X017Y0818
X01575Y0817
X0163Y0825
X01505Y0824
X0156Y0832
X01435Y0831
X00895Y0829
X00825Y0836
X00815Y08225
X00885Y08155
X00735Y0814
X00675Y0806
X0074Y07995
X00885Y0799
X0082Y0792
X00885Y0785
X0084Y07745
X00905Y07679
X00795Y0765
X007Y07665
X00695Y07725
X00635Y0778
X00585Y0784
X00515Y0791
X00445Y0798
X0039Y0801
X00385Y0807
X0042
X00455
X00495
X0054
X00575Y0801
X0061Y07975
X00645Y0794
X00685Y079
X00535Y0773
X00595Y0766
X00397Y07663
X00411Y0776
X00461Y07797
X00392Y07863
X00288Y07853
X00289Y07937
X00182Y07853
X00223Y07754
X00312Y07757
X00276Y07667
X00152Y07701
X00085
X00099Y0792
X0038Y0822
X0042
X0046
X005
X00545
X00625Y0825
Y08365
X00575
X00525
X00475
X00425
X0038
X0037Y08315
X0042
X0047
X0052
X00675Y08365
X00705Y08335
X00745Y08295
X00709Y07538
X00811Y07526
X0085Y07585
X0082Y0742
X00816Y07284
X00813Y0717
X00701Y07148
X00702Y07351
X00806Y07034
X00891Y07063
X00915Y0692
X0091Y0683
X0081
X00815Y0692
X00715
X0071Y0683
X0061
X00615Y0692
X00515
X0051Y0683
X0041
X00415Y0692
X0043Y08415
X0038
Y0851
X0043
X0048
X0053
X0058
X0063
X0068
X00715Y0846
X0077Y08415
X00655
X0062
X0058
X0053
X0048
Y0861
Y0866
Y0871
X0043
X0038
Y0866
X0043
Y0861
X0038
X0053
Y0866
Y0871
X0058
X0063
X0068
X0073
X0078
Y0866
X0073
X0068
X0063
X0058
Y0861
X0063
X0068
X0073
X0075Y0856
X008Y08515
X0086Y08465
X00915Y0855
X00855Y086
X0082Y08635
X00835Y0875
X00895Y08705
X0092Y08815
X0088Y08855
X0083
X0078
X0073
X0068
X0063
X0058
X0053
X0048
X0043
X0038
X00385Y08805
X00435
X00485
X00535
X00585
X00635
X00685
X00735
X00785
X0078Y0891
X0083
X0088
X00905Y08973
X00805
X00723
X0073Y0891
X0068
X0063
X0059Y08925
X0054
X0049
X0044
X0039
X00335Y0893
X00285
X00235
X00185
Y0899
X00235
X00285
X00335
X00385
X00435
X00485
X00535
X0057Y0902
X006Y09045
Y0908
X0065
X007
Y09135
Y09175
X0065
Y09135
X006
Y09175
X0055
Y09135
X005
Y09175
X0045
Y09135
Y0908
X005
X0055
X004Y09095
X00365Y0913
X0033Y09165
X00295Y092
X0026Y09235
X00225Y0927
X00166Y09283
X00155Y0934
Y0939
Y0944
Y0949
Y0954
Y0959
X00464Y09283
X005Y09248
X0055
X006
X0065Y09249
X00728Y09248
X00775
X00825
X00838Y09197
X0068Y09025
X00645Y09
X00615Y08965
X00145Y0897
X00105Y0894
X00065Y0893
X0093Y0891
X0098Y089
X01025Y08855
X0107Y0881
X01015Y0873
X0097Y0877
X0095Y0865
X0102Y0858
X00985Y0848
X0109Y0851
X01055Y0841
X0116Y0844
X0123Y0837
X01365Y0838
X0149Y0839
X0142Y0846
X01295Y0845
X0135Y0853
X01225Y0852
X0128Y086
X01155Y0859
X0121Y0867
X01085Y0866
X0114Y0874
X01105Y08973
X01205
X01305
X01405
X01505
X01605
X01705
X01766Y08975
X01805Y0893
X01855Y0888
X01905Y0883
X01955Y0878
X02035Y08755
X02085
X02135
X02185
X02235
X02285
X02335
X02385
X02435
X02485
X0245Y0884
X024
X0235
X023
X0225
X022
X0215
X021
X0205
X01995Y08885
X0195Y0893
X0201Y08965
X02075Y08925
X02125
X02175
X02225
X02275
X02325
X02375
X02425
X02475
X02465Y09
X02415
X02365
X02315
X02265
X02215
X02165
X0212
X02135Y091
X02185
X02235
X02285
X02335
X02385
X02435
X02485
X0248Y09185
X0243
X0238
X0233
X0228
X0223
X0218
X0213
X0215Y09245
X022
X0225
X023
X0235
X024
X02455
X021
X0205
X02Y09225
X0189Y09215
X01905Y0927
X018Y09275
Y09225
X0177Y0921
X0173Y09245
X017Y09225
X01665Y0921
X01625Y0925
X01575Y09225
X0152Y0925
X01525Y09305
X01565Y09355
X01605Y09395
X01665Y094
X0167Y0935
X01675Y093
X0165Y09445
X016Y09525
X0164Y09565
X0155Y09485
X01515Y09445
X0147Y09395
X01435Y0934
X01375Y09305
X01335Y0934
X0126Y0936
X0121Y0938
X01185Y09425
Y09465
Y09515
Y0956
X0117Y096
X0122Y09255
X0125Y09225
X01345
X01315Y09255
X0128Y0929
X0141Y0926
X0144Y0923
X01165Y0921
X01134Y09228
X01036Y09195
X01016Y09213
X01005Y08973
X0093Y08395
X019Y0898
X02515Y09
X02565
X02615
X02665
X02715
X02765
X02815
Y08925
X02765
X02715
X02665
X02615
X02565
X02525
X0254Y0884
X025
X0259
X0264
X0269
X0274
X0279
X0284
X02905
X0296Y0886
X03005Y08905
X03045Y0895
X03105Y09
X03225Y08995
Y08895
X0313
Y08795
X03225
Y08695
X0313
Y08595
X03225
Y08495
X0313
Y08395
X03225
X03325Y084
Y085
Y086
Y087
Y088
Y089
Y09
Y091
X03425
Y09175
X03525
Y091
X03625
Y09175
X03725
Y091
X0372Y09
X03815
Y089
X0372
X0362
X03525
X03425
Y09
X03525
X0362
Y088
X03525
X03425
Y087
Y086
Y085
Y084
X03525
X0362
Y085
X03525
Y086
X0362
Y087
X03525
X0372
X03815
Y086
X0372
Y085
X03815
Y084
X0372
X03935
Y085
Y086
Y087
Y088
Y089
Y09
X03925Y091
X0397Y09155
X04005Y09225
Y09275
Y09325
Y09375
Y09425
Y09475
X0397Y09525
X0393Y09555
X03915Y0947
X0392Y09385
Y0931
X0391Y0923
X03825Y09175
X03815Y088
X0372
X0302Y08795
X02975Y08755
X02925
X0292Y08695
Y08595
Y08495
Y08395
X0302
Y08495
Y08595
Y08695
X02815Y0869
X02835Y08755
X02785
X02735
X02685
X02635
X02585
X02535
Y091
X02585
X02635
X02685
X02735
X02785
X02835
X02915Y09105
Y09185
X0298
X03035Y091
X0296Y08995
X02905Y0894
X029Y09245
X02895Y09335
X029Y094
Y0945
X02925Y095
X0283Y09505
Y0944
X02785Y094
X0282Y09365
X02855Y09295
X028Y09245
X0275
X027
X0265
X026
X0255
X025
X0253Y09185
X0258
X0263
X0268
X0273
X0278
X0283
X0272Y0933
X02665Y09315
Y09375
X027Y09475
X0274Y09435
X0266Y0952
X0267Y0959
X0287Y09555
X02915Y0959
X02815Y0859
Y0849
Y0839
T02
X0059Y0004
Y00099
Y00158
Y00217
Y00276
Y00335
X00688
Y00276
Y00217
Y00158
Y00099
Y0004
X00787
Y00099
Y00158
Y00217
Y00276
Y00335
X00885
Y00276
Y00217
Y00158
Y00099
Y0004
X00984
Y00099
Y00158
Y00217
Y00276
Y00335
X01082
Y00276
Y00217
Y00158
Y00099
Y0004
X01181
Y00099
Y00158
Y00217
Y00276
Y00335
X01279
Y00276
Y00217
Y00158
Y00099
Y0004
X01377
Y00099
Y00158
Y00217
Y00276
Y00335
X01476
Y00276
Y00217
Y00158
Y00099
Y0004
X01852
Y00099
Y00158
Y00217
Y00276
Y00335
X0195
Y00276
Y00217
Y00158
Y00099
Y0004
X02049
Y00099
Y00158
Y00217
Y00276
Y00335
X02147
Y00276
Y00217
Y00158
Y00099
Y0004
X02246
Y00099
Y00158
Y00217
Y00276
Y00335
X02344
Y00276
Y00217
Y00158
Y00099
Y0004
X02443
Y00099
Y00158
Y00217
Y00276
Y00335
X02541
Y00276
Y00217
Y00158
Y00099
Y0004
X02639
Y00099
Y00158
Y00217
Y00276
Y00335
X02738
Y00276
Y00217
Y00158
Y00099
Y0004
X03346
Y00099
Y00158
Y00217
Y00276
Y00335
X03444
Y00276
Y00217
Y00158
Y00099
Y0004
X03543
Y00099
Y00158
Y00217
Y00276
Y00335
X03641
Y00276
Y00217
Y00158
Y00099
Y0004
X0374
Y00099
Y00158
Y00217
Y00276
Y00335
X03838
Y00276
Y00217
Y00158
Y00099
Y0004
X03937
Y00099
Y00158
Y00217
Y00276
Y00335
X04035
Y00276
Y00217
Y00158
Y00099
Y0004
X04133
Y00099
Y00158
Y00217
Y00276
Y00335
X04232
Y00276
Y00217
Y00158
Y00099
Y0004
X00335Y00597
X00276
X00217
X00158
X00099
X0004
Y00695
X00099
X00158
X00217
X00276
X00335
Y00794
X00276
X00217
X00158
X00099
X0004
Y00892
X00099
X00158
X00217
X00276
X00335
Y00991
X00276
X00217
X00158
X00099
X0004
Y01089
X00099
X00158
X00217
X00276
X00335
Y01188
X00276
X00217
X00158
X00099
X0004
Y01286
X00099
X00158
X00217
X00276
X00335
Y01384
X00276
X00217
X00158
X00099
X0004
Y01483
X00099
X00158
X00217
X00276
X00335
Y02091
X00276
X00217
X00158
X00099
X0004
Y02189
X00099
X00158
X00217
X00276
X00335
Y02288
X00276
X00217
X00158
X00099
X0004
Y02386
X00099
X00158
X00217
X00276
X00335
Y02485
X00276
X00217
X00158
X00099
X0004
Y02583
X00099
X00158
X00217
X00276
X00335
Y02682
X00276
X00217
X00158
X00099
X0004
Y0278
X00099
X00158
X00217
X00276
X00335
Y02878
X00276
X00217
X00158
X00099
X0004
Y02977
X00099
X00158
X00217
X00276
X00335
Y03353
X00276
X00217
X00158
X00099
X0004
Y03451
X00099
X00158
X00217
X00276
X00335
Y0355
X00276
X00217
X00158
X00099
X0004
Y03648
X00099
X00158
X00217
X00276
X00335
Y03747
X00276
X00217
X00158
X00099
X0004
Y03845
X00099
X00158
X00217
X00276
X00335
Y03944
X00276
X00217
X00158
X00099
X0004
Y04042
X00099
X00158
X00217
X00276
X00335
Y0414
X00276
X00217
X00158
X00099
X0004
Y04239
X00099
X00158
X00217
X00276
X00335
Y05239
X00276
X00217
X00158
X00099
X0004
Y05337
X00099
X00158
X00217
X00276
X00335
Y05436
X00276
X00217
X00158
X00099
X0004
Y05534
X00099
X00158
X00217
X00276
X00335
Y05633
X00276
X00217
X00158
X00099
X0004
Y05731
X00099
X00158
X00217
X00276
X00335
Y0583
X00276
X00217
X00158
X00099
X0004
Y05928
X00099
X00158
X00217
X00276
X00335
Y06026
X00276
X00217
X00158
X00099
X0004
Y06125
X00099
X00158
X00217
X00276
X00335
Y06733
X00276
X00217
X00158
X00099
X0004
Y06831
X00099
X00158
X00217
X00276
X00335
Y0693
X00276
X00217
X00158
X00099
X0004
Y07028
X00099
X00158
X00217
X00276
X00335
Y07127
X00276
X00217
X00158
X00099
X0004
Y07225
X00099
X00158
X00217
X00276
X00335
Y07324
X00276
X00217
X00158
X00099
X0004
Y07422
X00099
X00158
X00217
X00276
X00335
Y0752
X00276
X00217
X00158
X00099
X0004
Y07619
X00099
X00158
X00217
X00276
X00335
Y07995
X00276
X00217
X00158
X00099
X0004
Y08093
X00099
X00158
X00217
X00276
X00335
Y08192
X00276
X00217
X00158
X00099
X0004
Y0829
X00099
X00158
X00217
X00276
X00335
Y08389
X00276
X00217
X00158
X00099
X0004
Y08487
X00099
X00158
X00217
X00276
X00335
Y08586
X00276
X00217
X00158
X00099
X0004
Y08684
X00099
X00158
X00217
X00276
X00335
Y08782
X00276
X00217
X00158
X00099
X0004
Y08881
X00099
X00158
X00217
X00276
X00335
X00324Y09324
Y09383
Y09442
Y09501
Y0956
Y09619
X00423
Y0956
Y09501
Y09442
Y09383
Y09324
X00521
Y09383
Y09442
Y09501
Y0956
Y09619
X0062
Y0956
Y09501
Y09442
Y09383
Y09324
X00718
Y09383
Y09442
Y09501
Y0956
Y09619
X00817
Y0956
Y09501
Y09442
Y09383
Y09324
X00915
Y09383
Y09442
Y09501
Y0956
Y09619
X00226
Y0956
Y09501
Y09442
Y09383
Y09324
X01013
Y09383
Y09442
Y09501
Y0956
Y09619
X01112
Y0956
Y09501
Y09442
Y09383
Y09324
X0172
Y09383
Y09442
Y09501
Y0956
Y09619
X01818
Y0956
Y09501
Y09442
Y09383
Y09324
X01917
Y09383
Y09442
Y09501
Y0956
Y09619
X02015
Y0956
Y09501
Y09442
Y09383
Y09324
X02114
Y09383
Y09442
Y09501
Y0956
Y09619
X02212
Y0956
Y09501
Y09442
Y09383
Y09324
X02311
Y09383
Y09442
Y09501
Y0956
Y09619
X02409
Y0956
Y09501
Y09442
Y09383
Y09324
X02507
Y09383
Y09442
Y09501
Y0956
Y09619
X02606
Y0956
Y09501
Y09442
Y09383
Y09324
X02982
Y09383
Y09442
Y09501
Y0956
Y09619
X0308
Y0956
Y09501
Y09442
Y09383
Y09324
X03179
Y09383
Y09442
Y09501
Y0956
Y09619
X03277
Y0956
Y09501
Y09442
Y09383
Y09324
X03376
Y09383
Y09442
Y09501
Y0956
Y09619
X03474
Y0956
Y09501
Y09442
Y09383
Y09324
X03573
Y09383
Y09442
Y09501
Y0956
Y09619
X03671
Y0956
Y09501
Y09442
Y09383
Y09324
X03769
Y09383
Y09442
Y09501
Y0956
Y09619
X03868
Y0956
Y09501
Y09442
Y09383
Y09324
T03
X02727Y00695
X02827
X02927
X03027
X03127
X03227
X03327
X03427
X03527
X03627
X03727
X03827
X03927
X04027
Y00795
X03927
X03827
X03727
X03627
X03527
X03427
X03327
X03227
X03127
X03027
X02927
X02827
X02727
X01034Y01577
X00934
Y01677
Y01777
Y01877
Y01977
Y02077
X01034
Y01977
Y01877
Y01777
Y01677
Y02177
X00934
Y02277
Y02377
Y02477
Y02577
Y02677
Y02777
Y02877
X01034
Y02777
Y02677
Y02577
Y02477
Y02377
Y02277
X01042Y05771
Y05871
Y05971
Y06071
Y06171
Y06271
Y06371
Y06471
Y06571
Y06671
Y06771
X01142
Y06671
Y06571
Y06471
Y06371
Y06271
Y06171
Y06071
Y05971
Y05871
Y05771
Y06871
X01042
Y06971
Y07071
X01142
Y06971
X00873Y09053
X00773
Y09153
X00873
X00973
Y09053
X01073
X01173
X01273
X01373
X01473
X01573
X01673
X01773
X01873
X01973
X02073
Y09153
X01973
X01873
X01773
X01673
X01573
X01473
X01373
X01273
X01173
X01073
T04
X00233Y00233
X03775Y01175
X02232Y08362
X00132Y09125
X04146Y09159
M30
