G04 ================== begin FILE IDENTIFICATION RECORD ==================*
G04 Layout Name:  /home/mlewin/cust/bedrosian/a01809c/a01809c.brd*
G04 Film Name:    film1.art*
G04 File Format:  Gerber RS274X*
G04 File Origin:  15.7-S12*
G04 Origin Date:  Thu Oct  1 09:57:27 2009*
G04 *
G04 Layer:  VIA CLASS/TOP*
G04 Layer:  PIN/TOP*
G04 Layer:  PACKAGE GEOMETRY/ETCH_TOP*
G04 Layer:  ETCH/TOP*
G04 Layer:  BOARD GEOMETRY/TOOLING_CORNERS*
G04 Layer:  BOARD GEOMETRY/ROOT_NUMBER*
G04 *
G04 Offset:    (0.0 0.0)*
G04 Mirror:    No*
G04 Mode:      Positive*
G04 Rotation:  0*
G04 FullContactRelief:  No*
G04 UndefLineWidth:     8.0*
G04 ================== end FILE IDENTIFICATION RECORD ====================*
%FSLAX55Y55*MOIN*%
%IR0*IPPOS*OFA0.00000B0.00000*MIA0B0*SFA1.00000B1.00000*%
%ADD14R,.2X.06*%
%ADD22C,.1*%
%ADD13R,.2X.025*%
%AMMACRO15*
4,1,36,0.0,-.02,
.003473,-.019696,
.00684,-.018794,
.01,-.017321,
.012856,-.015321,
.015321,-.012856,
.017321,-.01,
.018794,-.00684,
.019696,-.003473,
.02,0.0,
.019696,.003473,
.018794,.00684,
.017321,.01,
.015321,.012856,
.012856,.015321,
.01,.017321,
.00684,.018794,
.003473,.019696,
0.0,.02,
-.003473,.019696,
-.00684,.018794,
-.01,.017321,
-.012856,.015321,
-.015321,.012856,
-.017321,.01,
-.018794,.00684,
-.019696,.003473,
-.02,0.0,
-.019696,-.003473,
-.018794,-.00684,
-.017321,-.01,
-.015321,-.012856,
-.012856,-.015321,
-.01,-.017321,
-.00684,-.018794,
-.003473,-.019696,
0.0,-.02,
0.0*
%
%ADD15MACRO15*%
%ADD19O,.032X.012*%
%ADD20R,.014X.04*%
%AMMACRO10*
4,1,36,0.0,-.02,
.003473,-.019696,
.00684,-.018794,
.01,-.017321,
.012856,-.015321,
.015321,-.012856,
.017321,-.01,
.018794,-.00684,
.019696,-.003473,
.02,0.0,
.019696,.003473,
.018794,.00684,
.017321,.01,
.015321,.012856,
.012856,.015321,
.01,.017321,
.00684,.018794,
.003473,.019696,
0.0,.02,
-.003473,.019696,
-.00684,.018794,
-.01,.017321,
-.012856,.015321,
-.015321,.012856,
-.017321,.01,
-.018794,.00684,
-.019696,.003473,
-.02,0.0,
-.019696,-.003473,
-.018794,-.00684,
-.017321,-.01,
-.015321,-.012856,
-.012856,-.015321,
-.01,-.017321,
-.00684,-.018794,
-.003473,-.019696,
0.0,-.02,
0.0*
%
%ADD10MACRO10*%
%ADD24R,.032X.035*%
%ADD11C,.04*%
%ADD23R,.025X.025*%
%ADD17R,.025X.025*%
%ADD21C,.016*%
%ADD12C,.025*%
%ADD25C,.075*%
%ADD16R,.043X.043*%
%ADD18R,.057X.069*%
%ADD26C,.012*%
%ADD27C,.05*%
%ADD28C,.028*%
%ADD32C,.2044*%
%ADD30C,.1544*%
%ADD31C,.0644*%
%ADD29C,.0744*%
G75*
%LPD*%
G75*
G36*
G01X-66000Y-85000D02*
Y-2760D01*
X-21810D01*
Y-3510D01*
X-12190D01*
Y-2130D01*
X-8480D01*
G02X-8090Y-2610I0J-398D01*
G03X-6310Y-4760I1780J-338D01*
G01X-4310D01*
G03X-2790Y-1960I0J1813D01*
G03X-2620Y-1630I-1515J989D01*
G03Y3590I-1690J2610D01*
G03X-4310Y4760I-1690J-636D01*
G01X-5700D01*
X-8190Y7250D01*
Y11250D01*
X-10400Y13460D01*
X-11640D01*
Y15740D01*
X-2950D01*
G02X-2660Y15060I0J-402D01*
G03X2660I2660J-2600D01*
G02X2950Y15740I290J278D01*
G01X11890D01*
Y9450D01*
X7200Y4760D01*
X4310D01*
G03X2790Y1960I0J-1813D01*
G03Y0I1521J-980D01*
G03Y-1960I1521J-980D01*
G03X4310Y-4760I1520J-987D01*
G01X6310D01*
G03X7830Y-1960I0J1813D01*
G03X8120Y-1030I-1519J984D01*
G01Y-830D01*
X10850D01*
X10910Y-880D01*
G03X12520Y-1480I1610J1860D01*
G01X23500D01*
X23520Y-1460D01*
X57500D01*
Y-85000D01*
X-66000D01*
G37*
G36*
G01X11980Y3380D02*
G02X11610Y4050I-82J392D01*
G01X14450Y6890D01*
X14530D01*
G03X17110Y9500I-30J2610D01*
G01Y17950D01*
G03Y18000I-2610J25D01*
G01Y44500D01*
G03Y44550I-2610J25D01*
G01Y47640D01*
X17310D01*
Y59360D01*
X17110D01*
Y63790D01*
X17860D01*
Y77210D01*
X17110D01*
Y79350D01*
X17220Y79410D01*
G03X20090Y82280I-2721J5591D01*
G01X20150Y82390D01*
X29770D01*
X29830Y82300D01*
G03Y87700I4171J2700D01*
G01X29770Y87610D01*
X20150D01*
X20090Y87720D01*
G03X11780Y79410I-5592J-2718D01*
G01X11890Y79350D01*
Y77210D01*
X11140D01*
Y63790D01*
X11890D01*
Y59360D01*
X11690D01*
Y47640D01*
X11890D01*
Y44550D01*
G03Y44500I2610J-25D01*
G01Y20960D01*
X-11640D01*
Y21710D01*
X-18360D01*
Y8290D01*
X-12500D01*
Y5510D01*
X-21810D01*
Y4760D01*
X-66000D01*
Y92500D01*
X57500D01*
Y3460D01*
X19500D01*
G03X19210Y3440I0J-2112D01*
G01X19200D01*
X12520D01*
G03X11980Y3380I0J-2460D01*
G37*
%LPC*%
G75*
G54D32*
X45000Y-72500D03*
X-53500D03*
X-52500Y80000D03*
G54D30*
X0Y-29250D03*
Y-46250D03*
Y29250D03*
Y46250D03*
G54D31*
X47500Y-52500D03*
X-52500D03*
X47500Y70000D03*
G54D29*
X0Y-12460D03*
%LPD*%
G75*
G54D10*
X-53500Y-72500D03*
X-52500Y80000D03*
X45000Y-72500D03*
G54D11*
X-52500Y-52500D03*
X47500D03*
Y70000D03*
G54D20*
X-18600Y1000D03*
X-15400D03*
G54D12*
G01X-56000D02*
X-27000D01*
G01X-19600D02*
X-27000D01*
G01X47500D02*
X31000D01*
G01X26000D02*
X22500D01*
G01X19500D02*
X22500D01*
G01D02*
X22480Y980D01*
X12520D01*
X-49500Y-59000D03*
X-62000Y-59500D03*
Y-44500D03*
X-49500D03*
X-49000Y-31500D03*
X-62000Y-27000D03*
X-52500Y-5000D03*
X-58500D03*
X-52500Y7500D03*
X-58500D03*
X-51000Y-20000D03*
X-61000D03*
X-56000D03*
X-61000Y-10000D03*
X-51000D03*
X-56000D03*
Y-15700D03*
X-64500Y29000D03*
X-64000Y41000D03*
Y55500D03*
X-51500D03*
X-51000Y12500D03*
X-56000D03*
X-61000D03*
Y22500D03*
X-51000D03*
X-56000D03*
Y17700D03*
X-52500Y65000D03*
X-64000Y78000D03*
X-12000Y-56500D03*
X-23000Y-57500D03*
X-36500Y-58500D03*
X-6500Y-55500D03*
X-12000Y-44500D03*
X-23000D03*
X-36500D03*
X-15000Y-82500D03*
X-45000D03*
X-12500Y-8000D03*
X-20500Y-7500D03*
X-32000Y-9000D03*
X-23500Y-33000D03*
X-37000Y-31000D03*
X-36500Y-9000D03*
X-41500D03*
X-26000Y11500D03*
X-32000D03*
X-41500D03*
X-32500Y-5000D03*
X-38100D03*
X-45000D03*
X-43000Y-16000D03*
X-22500Y7500D03*
X-30000D03*
X-37500D03*
X-45000D03*
X-26000Y-21000D03*
X-14500Y-37500D03*
X-27000Y-8500D03*
X-20500Y59000D03*
X-35500Y59500D03*
X-36500Y25000D03*
X-24000D03*
X-15000Y27500D03*
X-30000Y25000D03*
X-45000D03*
X-15000Y53000D03*
X-27500D03*
X-42500D03*
X-7500Y55500D03*
X-8000Y37000D03*
X-6500Y14000D03*
Y65000D03*
X-12500Y77500D03*
X-32500D03*
X43000Y-58500D03*
X25000Y-60000D03*
X30000Y-51000D03*
X15500D03*
X49000Y-39000D03*
X7500Y-56000D03*
X43500Y-48500D03*
X25000Y-82500D03*
X7500D03*
X24500Y-24500D03*
X28000Y-13500D03*
X18500Y-13000D03*
X33000Y12000D03*
X24000D03*
X19500Y6000D03*
X23000Y-7000D03*
X14500Y-6500D03*
X29500Y-37000D03*
X16000D03*
X38500Y11500D03*
X40000Y-8000D03*
X32500D03*
X42500Y-3500D03*
X36000D03*
X29500D03*
X28500Y6000D03*
X38500D03*
X43500Y-31000D03*
X50000Y-2500D03*
X42500Y7500D03*
X50000D03*
X52500Y-10000D03*
X42500Y-20000D03*
X52500D03*
X47500D03*
Y-10000D03*
Y-15000D03*
X45500Y42000D03*
X46500Y55500D03*
X35500Y35500D03*
X36000Y50000D03*
Y61000D03*
X24000Y38500D03*
Y28500D03*
Y18000D03*
Y22000D03*
Y44500D03*
Y33000D03*
Y61500D03*
X6000Y13500D03*
Y22000D03*
X9000Y35000D03*
X9500Y40500D03*
X10000Y48000D03*
Y55500D03*
X42500Y25000D03*
X52500D03*
X47500D03*
X42500Y12500D03*
X52500D03*
X47500D03*
Y18200D03*
X9000Y64500D03*
X28500Y78000D03*
X7500Y77500D03*
X56000Y-48500D03*
Y-64500D03*
Y7000D03*
Y-30500D03*
X55500Y34000D03*
Y57500D03*
X55000Y77500D03*
G54D21*
X-5000Y5500D03*
Y-5500D03*
Y-20000D03*
Y8500D03*
Y-9000D03*
X0Y-5000D03*
Y5000D03*
X-1500Y-2000D03*
X1500D03*
Y2500D03*
X-1500D03*
X0Y0D03*
X-7500Y22500D03*
X5000Y5500D03*
Y-5500D03*
Y-21000D03*
Y8500D03*
Y-9000D03*
G54D13*
X-56000Y1000D03*
X47500D03*
G54D22*
X-20000Y85000D03*
X14500D03*
G54D23*
X26000Y1000D03*
X31000D03*
X14500Y44500D03*
X19500D03*
X14500Y61500D03*
X19500D03*
X14500Y33000D03*
X19500D03*
G54D14*
X-56000Y-15700D03*
Y17700D03*
X47500Y-15700D03*
Y17700D03*
G54D24*
X14500Y56400D03*
Y50600D03*
G54D15*
X0Y-46250D03*
Y12460D03*
Y-12460D03*
Y-29250D03*
Y46250D03*
Y29250D03*
G54D16*
X-15000Y11650D03*
Y18350D03*
X14500Y73850D03*
Y67150D03*
G54D25*
X34000Y85000D03*
X44000D03*
G54D26*
G01X-15400Y1000D02*
X-12420D01*
X-12400Y980D01*
X-5310D01*
G01Y2950D02*
X-6450D01*
X-10000Y6500D01*
Y10500D01*
X-11150Y11650D01*
X-15000D01*
G01X5310Y2950D02*
X7950D01*
X14500Y9500D01*
G01X18000Y850D02*
X18150Y1000D01*
X19500D01*
G01X5120Y980D02*
X5310D01*
G01X12520D02*
X5310D01*
G01X19500Y44500D02*
X24000D01*
G01X19500Y33000D02*
X24000D01*
G01X19500Y61500D02*
X24000D01*
G54D17*
X-27000Y1000D03*
Y-4000D03*
G54D18*
X0Y0D03*
G54D28*
G01X14500Y18000D02*
X14150Y18350D01*
X-15000D01*
G01X14500Y9500D02*
Y18000D01*
G01Y44500D02*
Y50600D01*
G01Y18000D02*
Y33000D01*
G01D02*
Y44500D01*
G01Y61500D02*
Y67150D01*
G01Y61500D02*
Y56400D01*
G01Y85000D02*
X34000D01*
G01X14500Y73850D02*
Y85000D01*
G54D19*
X-5310Y-980D03*
Y-2950D03*
Y980D03*
Y2950D03*
X5310Y-2950D03*
Y-980D03*
Y980D03*
Y2950D03*
M02*
