G04 ================== begin FILE IDENTIFICATION RECORD ==================*
G04 Layout Name:  /home/mlewin/cust/bedrosian/a01809c/a01809c.brd*
G04 Film Name:    film8.art*
G04 File Format:  Gerber RS274X*
G04 File Origin:  15.7-S12*
G04 Origin Date:  Thu Oct  1 09:57:28 2009*
G04 *
G04 Layer:  VIA CLASS/INT2*
G04 Layer:  PIN/INT2*
G04 Layer:  ETCH/INT2*
G04 Layer:  BOARD GEOMETRY/TOOLING_CORNERS*
G04 Layer:  BOARD GEOMETRY/ROOT_NUMBER*
G04 *
G04 Offset:    (0.0 0.0)*
G04 Mirror:    No*
G04 Mode:      Negative*
G04 Rotation:  0*
G04 FullContactRelief:  No*
G04 UndefLineWidth:     8.0*
G04 ================== end FILE IDENTIFICATION RECORD ====================*
%FSLAX55Y55*MOIN*%
%IR0*IPPOS*OFA0.00000B0.00000*MIA0B0*SFA1.00000B1.00000*%
%ADD22C,.1*%
%ADD13C,.13*%
%ADD21C,.105*%
%ADD10C,.18*%
%AMMACRO20*
4,1,17,.0313,.0207,
.034419,.014952,
.036493,.00875,
.037458,.002282,
.037285,-.004256,
.03598,-.010664,
.033582,-.016748,
.0313,-.0207,
.0385,-.0279,
.04276,-.020794,
.045722,-.013056,
.047295,-.004922,
.047431,.003362,
.046127,.011544,
.043422,.019375,
.039398,.026618,
.0385,.0279,
.0313,.0207,
0.0*
4,1,17,.0207,-.0313,
.014952,-.034419,
.00875,-.036493,
.002282,-.037458,
-.004256,-.037285,
-.010664,-.03598,
-.016748,-.033582,
-.0207,-.0313,
-.0279,-.0385,
-.020794,-.04276,
-.013056,-.045722,
-.004922,-.047295,
.003362,-.047431,
.011544,-.046127,
.019375,-.043422,
.026618,-.039398,
.0279,-.0385,
.0207,-.0313,
0.0*
4,1,17,-.0313,-.0207,
-.034419,-.014952,
-.036493,-.00875,
-.037458,-.002282,
-.037285,.004256,
-.03598,.010664,
-.033582,.016748,
-.0313,.0207,
-.0385,.0279,
-.04276,.020794,
-.045722,.013056,
-.047295,.004922,
-.047431,-.003362,
-.046127,-.011544,
-.043422,-.019375,
-.039398,-.026618,
-.0385,-.0279,
-.0313,-.0207,
0.0*
4,1,17,-.0207,.0313,
-.014952,.034419,
-.00875,.036493,
-.002282,.037458,
.004256,.037285,
.010664,.03598,
.016748,.033582,
.0207,.0313,
.0279,.0385,
.020794,.04276,
.013056,.045722,
.004922,.047295,
-.003362,.047431,
-.011544,.046127,
-.019375,.043422,
-.026618,.039398,
-.0279,.0385,
-.0207,.0313,
0.0*
%
%ADD20MACRO20*%
%AMMACRO17*
4,1,18,.0385,.0279,
.04276,.020794,
.045722,.013056,
.047295,.004922,
.047431,-.003362,
.046127,-.011544,
.043422,-.019375,
.039398,-.026618,
.0385,-.0279,
.0456,-.035,
.050985,-.026549,
.05482,-.017291,
.05699,-.007507,
.057428,.002504,
.05612,.012439,
.053107,.021997,
.048481,.030886,
.0456,.035,
.0385,.0279,
0.0*
4,1,18,.0279,-.0385,
.020794,-.04276,
.013056,-.045722,
.004922,-.047295,
-.003362,-.047431,
-.011544,-.046127,
-.019375,-.043422,
-.026618,-.039398,
-.0279,-.0385,
-.035,-.0456,
-.026549,-.050985,
-.017291,-.05482,
-.007507,-.05699,
.002504,-.057428,
.012439,-.05612,
.021997,-.053107,
.030886,-.048481,
.035,-.0456,
.0279,-.0385,
0.0*
4,1,18,-.0385,-.0279,
-.04276,-.020794,
-.045722,-.013056,
-.047295,-.004922,
-.047431,.003362,
-.046127,.011544,
-.043422,.019375,
-.039398,.026618,
-.0385,.0279,
-.0456,.035,
-.050985,.026549,
-.05482,.017291,
-.05699,.007507,
-.057428,-.002504,
-.05612,-.012439,
-.053107,-.021997,
-.048481,-.030886,
-.0456,-.035,
-.0385,-.0279,
0.0*
4,1,18,-.0279,.0385,
-.020794,.04276,
-.013056,.045722,
-.004922,.047295,
.003362,.047431,
.011544,.046127,
.019375,.043422,
.026618,.039398,
.0279,.0385,
.035,.0456,
.026549,.050985,
.017291,.05482,
.007507,.05699,
-.002504,.057428,
-.012439,.05612,
-.021997,.053107,
-.030886,.048481,
-.035,.0456,
-.0279,.0385,
0.0*
%
%ADD17MACRO17*%
%AMMACRO14*
4,1,36,0.0,-.02,
.003473,-.019696,
.00684,-.018794,
.01,-.017321,
.012856,-.015321,
.015321,-.012856,
.017321,-.01,
.018794,-.00684,
.019696,-.003473,
.02,0.0,
.019696,.003473,
.018794,.00684,
.017321,.01,
.015321,.012856,
.012856,.015321,
.01,.017321,
.00684,.018794,
.003473,.019696,
0.0,.02,
-.003473,.019696,
-.00684,.018794,
-.01,.017321,
-.012856,.015321,
-.015321,.012856,
-.017321,.01,
-.018794,.00684,
-.019696,.003473,
-.02,0.0,
-.019696,-.003473,
-.018794,-.00684,
-.017321,-.01,
-.015321,-.012856,
-.012856,-.015321,
-.01,-.017321,
-.00684,-.018794,
-.003473,-.019696,
0.0,-.02,
0.0*
%
%ADD14MACRO14*%
%AMMACRO12*
4,1,36,.0025,0.0,
.002462,-.000434,
.002349,-.000855,
.002165,-.00125,
.001915,-.001607,
.001607,-.001915,
.00125,-.002165,
.000855,-.002349,
.000434,-.002462,
0.0,-.0025,
-.000434,-.002462,
-.000855,-.002349,
-.00125,-.002165,
-.001607,-.001915,
-.001915,-.001607,
-.002165,-.00125,
-.002349,-.000855,
-.002462,-.000434,
-.0025,0.0,
-.002462,.000434,
-.002349,.000855,
-.002165,.00125,
-.001915,.001607,
-.001607,.001915,
-.00125,.002165,
-.000855,.002349,
-.000434,.002462,
0.0,.0025,
.000434,.002462,
.000855,.002349,
.00125,.002165,
.001607,.001915,
.001915,.001607,
.002165,.00125,
.002349,.000855,
.002462,.000434,
.0025,0.0,
0.0*
%
%ADD12MACRO12*%
%AMMACRO11*
4,1,36,0.0,-.02,
.003473,-.019696,
.00684,-.018794,
.01,-.017321,
.012856,-.015321,
.015321,-.012856,
.017321,-.01,
.018794,-.00684,
.019696,-.003473,
.02,0.0,
.019696,.003473,
.018794,.00684,
.017321,.01,
.015321,.012856,
.012856,.015321,
.01,.017321,
.00684,.018794,
.003473,.019696,
0.0,.02,
-.003473,.019696,
-.00684,.018794,
-.01,.017321,
-.012856,.015321,
-.015321,.012856,
-.017321,.01,
-.018794,.00684,
-.019696,.003473,
-.02,0.0,
-.019696,-.003473,
-.018794,-.00684,
-.017321,-.01,
-.015321,-.012856,
-.012856,-.015321,
-.01,-.017321,
-.00684,-.018794,
-.003473,-.019696,
0.0,-.02,
0.0*
%
%ADD11MACRO11*%
%ADD15C,.05*%
%ADD19C,.075*%
%ADD18C,.085*%
%AMMACRO16*
4,1,36,.0025,0.0,
.002462,-.000434,
.002349,-.000855,
.002165,-.00125,
.001915,-.001607,
.001607,-.001915,
.00125,-.002165,
.000855,-.002349,
.000434,-.002462,
0.0,-.0025,
-.000434,-.002462,
-.000855,-.002349,
-.00125,-.002165,
-.001607,-.001915,
-.001915,-.001607,
-.002165,-.00125,
-.002349,-.000855,
-.002462,-.000434,
-.0025,0.0,
-.002462,.000434,
-.002349,.000855,
-.002165,.00125,
-.001915,.001607,
-.001607,.001915,
-.00125,.002165,
-.000855,.002349,
-.000434,.002462,
0.0,.0025,
.000434,.002462,
.000855,.002349,
.00125,.002165,
.001607,.001915,
.001915,.001607,
.002165,.00125,
.002349,.000855,
.002462,.000434,
.0025,0.0,
0.0*
%
%ADD16MACRO16*%
%ADD23C,.012*%
%ADD24C,.05*%
G75*
%LPD*%
G75*
G36*
G01X-168500Y-187500D02*
X160000D01*
Y195000D01*
X-168500D01*
Y-187500D01*
G37*
%LPC*%
G75*
G36*
G01X-66000Y-85000D02*
X57500D01*
Y92500D01*
X-66000D01*
Y-85000D01*
G37*
%LPD*%
G75*
G54D13*
X0Y-46250D03*
Y-29250D03*
Y46250D03*
Y29250D03*
G54D21*
X14500Y85000D03*
G54D10*
X-53500Y-72500D03*
X-52500Y80000D03*
X45000Y-72500D03*
G54D20*
X44000Y85000D03*
G54D17*
X-20000D03*
G54D12*
X-49500Y-59000D03*
X-62000Y-59500D03*
Y-44500D03*
X-49500D03*
X-49000Y-31500D03*
X-62000Y-27000D03*
X-52500Y-5000D03*
X-58500D03*
X-52500Y7500D03*
X-58500D03*
X-51000Y-20000D03*
X-61000D03*
X-56000D03*
X-61000Y-10000D03*
X-51000D03*
X-56000D03*
Y-15700D03*
X-64500Y29000D03*
X-64000Y41000D03*
Y55500D03*
X-51500D03*
X-51000Y12500D03*
X-56000D03*
X-61000D03*
Y22500D03*
X-51000D03*
X-56000D03*
Y17700D03*
X-52500Y65000D03*
X-64000Y78000D03*
X-12000Y-56500D03*
X-23000Y-57500D03*
X-36500Y-58500D03*
X-6500Y-55500D03*
X-12000Y-44500D03*
X-23000D03*
X-36500D03*
X-15000Y-82500D03*
X-45000D03*
X-12500Y-8000D03*
X-20500Y-7500D03*
X-32000Y-9000D03*
X-23500Y-33000D03*
X-37000Y-31000D03*
X-36500Y-9000D03*
X-41500D03*
X-26000Y11500D03*
X-32000D03*
X-41500D03*
X-32500Y-5000D03*
X-38100D03*
X-45000D03*
X-43000Y-16000D03*
X-22500Y7500D03*
X-30000D03*
X-37500D03*
X-45000D03*
X-26000Y-21000D03*
X-14500Y-37500D03*
X-27000Y-8500D03*
X-20500Y59000D03*
X-35500Y59500D03*
X-36500Y25000D03*
X-24000D03*
X-15000Y27500D03*
X-30000Y25000D03*
X-45000D03*
X-15000Y53000D03*
X-27500D03*
X-42500D03*
X-7500Y55500D03*
X-8000Y37000D03*
X-6500Y14000D03*
Y65000D03*
X-12500Y77500D03*
X-32500D03*
X43000Y-58500D03*
X25000Y-60000D03*
X30000Y-51000D03*
X15500D03*
X49000Y-39000D03*
X7500Y-56000D03*
X43500Y-48500D03*
X25000Y-82500D03*
X7500D03*
X24500Y-24500D03*
X28000Y-13500D03*
X18500Y-13000D03*
X33000Y12000D03*
X24000D03*
X19500Y6000D03*
X23000Y-7000D03*
X14500Y-6500D03*
X29500Y-37000D03*
X16000D03*
X38500Y11500D03*
X40000Y-8000D03*
X32500D03*
X42500Y-3500D03*
X36000D03*
X29500D03*
X28500Y6000D03*
X38500D03*
X43500Y-31000D03*
X50000Y-2500D03*
X42500Y7500D03*
X50000D03*
X52500Y-10000D03*
X42500Y-20000D03*
X52500D03*
X47500D03*
Y-10000D03*
Y-15000D03*
X45500Y42000D03*
X46500Y55500D03*
X35500Y35500D03*
X36000Y50000D03*
Y61000D03*
X24000Y38500D03*
Y28500D03*
Y18000D03*
Y22000D03*
Y44500D03*
Y33000D03*
Y61500D03*
X6000Y13500D03*
Y22000D03*
X9000Y35000D03*
X9500Y40500D03*
X10000Y48000D03*
Y55500D03*
X42500Y25000D03*
X52500D03*
X47500D03*
X42500Y12500D03*
X52500D03*
X47500D03*
Y18200D03*
X9000Y64500D03*
X28500Y78000D03*
X7500Y77500D03*
X56000Y-48500D03*
Y-64500D03*
Y7000D03*
Y-30500D03*
X55500Y34000D03*
Y57500D03*
X55000Y77500D03*
G54D15*
X0Y12460D03*
Y-12460D03*
G54D16*
X-5000Y5500D03*
Y-5500D03*
Y-20000D03*
Y8500D03*
Y-9000D03*
X0Y-5000D03*
Y5000D03*
X-1500Y-2000D03*
X1500D03*
Y2500D03*
X-1500D03*
X0Y0D03*
X-7500Y22500D03*
X5000Y5500D03*
Y-5500D03*
Y-21000D03*
Y8500D03*
Y-9000D03*
G54D18*
X34000Y85000D03*
%LPC*%
G75*
G54D11*
X-53500Y-72500D03*
X-52500Y80000D03*
X45000Y-72500D03*
G54D22*
X14500Y85000D03*
G54D23*
G01X-60000Y160000D02*
X-60930Y159670D01*
X-61630Y158830D01*
X-62100Y157830D01*
X-62450Y156500D01*
X-62570Y155000D01*
X-62450Y153500D01*
X-62100Y152170D01*
X-61630Y151170D01*
X-60930Y150330D01*
X-60000Y150000D01*
X-59070Y150330D01*
X-58370Y151170D01*
X-57900Y152170D01*
X-57550Y153500D01*
X-57430Y155000D01*
X-57550Y156500D01*
X-57900Y157830D01*
X-58370Y158830D01*
X-59070Y159670D01*
X-60000Y160000D01*
G01X-50000Y150000D02*
X-49180Y150170D01*
X-48250Y150670D01*
X-47670Y151500D01*
X-47430Y152670D01*
X-47670Y153830D01*
X-48370Y154830D01*
X-49420Y155330D01*
X-50580D01*
X-51280Y155670D01*
X-51870Y156500D01*
X-52100Y157670D01*
X-51750Y158830D01*
X-50930Y159670D01*
X-50000Y160000D01*
X-49070Y159670D01*
X-48250Y158830D01*
X-47900Y157670D01*
X-48130Y156500D01*
X-48720Y155670D01*
X-49420Y155330D01*
X-50580D01*
X-51630Y154830D01*
X-52330Y153830D01*
X-52570Y152670D01*
X-52330Y151500D01*
X-51750Y150670D01*
X-50820Y150170D01*
X-50000Y150000D01*
G01X-41520Y153330D02*
X-38480D01*
G01X28480D02*
X31520D01*
G01X40000Y160000D02*
X39070Y159670D01*
X38370Y158830D01*
X37900Y157830D01*
X37550Y156500D01*
X37430Y155000D01*
X37550Y153500D01*
X37900Y152170D01*
X38370Y151170D01*
X39070Y150330D01*
X40000Y150000D01*
X40930Y150330D01*
X41630Y151170D01*
X42100Y152170D01*
X42450Y153500D01*
X42570Y155000D01*
X42450Y156500D01*
X42100Y157830D01*
X41630Y158830D01*
X40930Y159670D01*
X40000Y160000D01*
G01X50000Y150000D02*
X50820Y150170D01*
X51750Y150670D01*
X52330Y151500D01*
X52570Y152670D01*
X52330Y153830D01*
X51630Y154830D01*
X50580Y155330D01*
X49420D01*
X48720Y155670D01*
X48130Y156500D01*
X47900Y157670D01*
X48250Y158830D01*
X49070Y159670D01*
X50000Y160000D01*
X50930Y159670D01*
X51750Y158830D01*
X52100Y157670D01*
X51870Y156500D01*
X51280Y155670D01*
X50580Y155330D01*
X49420D01*
X48370Y154830D01*
X47670Y153830D01*
X47430Y152670D01*
X47670Y151500D01*
X48250Y150670D01*
X49180Y150170D01*
X50000Y150000D01*
G01X-32920D02*
X-30000Y160000D01*
X-27080Y150000D01*
G01X-28130Y153500D02*
X-31870D01*
G01X-20000Y160000D02*
X-20930Y159670D01*
X-21630Y158830D01*
X-22100Y157830D01*
X-22450Y156500D01*
X-22570Y155000D01*
X-22450Y153500D01*
X-22100Y152170D01*
X-21630Y151170D01*
X-20930Y150330D01*
X-20000Y150000D01*
X-19070Y150330D01*
X-18370Y151170D01*
X-17900Y152170D01*
X-17550Y153500D01*
X-17430Y155000D01*
X-17550Y156500D01*
X-17900Y157830D01*
X-18370Y158830D01*
X-19070Y159670D01*
X-20000Y160000D01*
G01X-10000Y150000D02*
Y160000D01*
X-11400Y158000D01*
G01Y150000D02*
X-8600D01*
G01X0D02*
X820Y150170D01*
X1750Y150670D01*
X2330Y151500D01*
X2570Y152670D01*
X2330Y153830D01*
X1630Y154830D01*
X580Y155330D01*
X-580D01*
X-1280Y155670D01*
X-1870Y156500D01*
X-2100Y157670D01*
X-1750Y158830D01*
X-930Y159670D01*
X0Y160000D01*
X930Y159670D01*
X1750Y158830D01*
X2100Y157670D01*
X1870Y156500D01*
X1280Y155670D01*
X580Y155330D01*
X-580D01*
X-1630Y154830D01*
X-2330Y153830D01*
X-2570Y152670D01*
X-2330Y151500D01*
X-1750Y150670D01*
X-820Y150170D01*
X0Y150000D01*
G01X10000Y160000D02*
X9070Y159670D01*
X8370Y158830D01*
X7900Y157830D01*
X7550Y156500D01*
X7430Y155000D01*
X7550Y153500D01*
X7900Y152170D01*
X8370Y151170D01*
X9070Y150330D01*
X10000Y150000D01*
X10930Y150330D01*
X11630Y151170D01*
X12100Y152170D01*
X12450Y153500D01*
X12570Y155000D01*
X12450Y156500D01*
X12100Y157830D01*
X11630Y158830D01*
X10930Y159670D01*
X10000Y160000D01*
G01X18020Y151170D02*
X18830Y150330D01*
X19770Y150000D01*
X20700Y150330D01*
X21520Y151330D01*
X22100Y152830D01*
X22330Y154330D01*
Y156170D01*
X22100Y157670D01*
X21520Y159000D01*
X20820Y159670D01*
X20000Y160000D01*
X19070Y159670D01*
X18370Y159000D01*
X17900Y158000D01*
X17670Y156670D01*
X17900Y155500D01*
X18480Y154330D01*
X19180Y153670D01*
X20000Y153500D01*
X20930Y153830D01*
X21630Y154670D01*
X22330Y156170D01*
G01X-27330Y130000D02*
Y140000D01*
X-24420D01*
X-23480Y139500D01*
X-22900Y138830D01*
X-22670Y137500D01*
X-22900Y136170D01*
X-23600Y135330D01*
X-24420Y134830D01*
X-27330D01*
G01X-24420D02*
X-22670Y130000D01*
G01X-12670D02*
X-17330D01*
Y140000D01*
X-12670D01*
G01X-14530Y135170D02*
X-17330D01*
G01X-7920Y140000D02*
X-5000Y130000D01*
X-2080Y140000D01*
G01X17570Y139170D02*
X16870Y139670D01*
X16050Y140000D01*
X15120D01*
X14070Y139500D01*
X13250Y138670D01*
X12670Y137670D01*
X12200Y136000D01*
X12080Y134500D01*
X12320Y133000D01*
X12670Y132000D01*
X13370Y131000D01*
X14180Y130330D01*
X15000Y130000D01*
X15820D01*
X16630Y130330D01*
X17330Y130830D01*
X17920Y131500D01*
G01X-21400Y180000D02*
X-18600D01*
G01X-20000D02*
Y170000D01*
G01X-21400D02*
X-18600D01*
G01X-12680D02*
Y180000D01*
X-7320Y170000D01*
Y180000D01*
G01X0D02*
Y170000D01*
G01X-2680Y180000D02*
X2680D01*
G01X7780Y178330D02*
X8480Y179330D01*
X9300Y179830D01*
X10230Y180000D01*
X11400Y179670D01*
X12220Y178830D01*
X12450Y177830D01*
X12330Y176830D01*
X11870Y176000D01*
X9530Y174330D01*
X8480Y173170D01*
X7780Y171500D01*
X7550Y170000D01*
X12450D01*
G54D14*
X0Y-46250D03*
Y12460D03*
Y-12460D03*
Y-29250D03*
Y46250D03*
Y29250D03*
G54D24*
G01X-71000Y-100000D02*
Y-65000D01*
G01X-81000Y-90000D02*
X-46000D01*
G01X-71000Y107500D02*
Y72500D01*
G01X-81000Y97500D02*
X-46000D01*
G01X72500Y-90000D02*
X37500D01*
G01X72500Y97500D02*
X37500D01*
G01X62500Y-100000D02*
Y-65000D01*
G01Y107500D02*
Y72500D01*
G54D19*
X34000Y85000D03*
M02*
