G04 ================== begin FILE IDENTIFICATION RECORD ==================*
G04 Layout Name:  /home/mlewin/cust/bedrosian/a01809c/a01809c.brd*
G04 Film Name:    film2.art*
G04 File Format:  Gerber RS274X*
G04 File Origin:  15.7-S12*
G04 Origin Date:  Thu Oct  1 09:57:27 2009*
G04 *
G04 Layer:  VIA CLASS/BOTTOM*
G04 Layer:  PIN/BOTTOM*
G04 Layer:  PACKAGE GEOMETRY/ETCH_BOTTOM*
G04 Layer:  ETCH/BOTTOM*
G04 Layer:  BOARD GEOMETRY/TOOLING_CORNERS*
G04 Layer:  BOARD GEOMETRY/ROOT_NUMBER*
G04 *
G04 Offset:    (0.0 0.0)*
G04 Mirror:    No*
G04 Mode:      Positive*
G04 Rotation:  0*
G04 FullContactRelief:  No*
G04 UndefLineWidth:     8.0*
G04 ================== end FILE IDENTIFICATION RECORD ====================*
%FSLAX55Y55*MOIN*%
%IR0*IPPOS*OFA0.00000B0.00000*MIA0B0*SFA1.00000B1.00000*%
%ADD12R,.2X.06*%
%ADD15C,.1*%
%AMMACRO13*
4,1,36,0.0,-.02,
.003473,-.019696,
.00684,-.018794,
.01,-.017321,
.012856,-.015321,
.015321,-.012856,
.017321,-.01,
.018794,-.00684,
.019696,-.003473,
.02,0.0,
.019696,.003473,
.018794,.00684,
.017321,.01,
.015321,.012856,
.012856,.015321,
.01,.017321,
.00684,.018794,
.003473,.019696,
0.0,.02,
-.003473,.019696,
-.00684,.018794,
-.01,.017321,
-.012856,.015321,
-.015321,.012856,
-.017321,.01,
-.018794,.00684,
-.019696,.003473,
-.02,0.0,
-.019696,-.003473,
-.018794,-.00684,
-.017321,-.01,
-.015321,-.012856,
-.012856,-.015321,
-.01,-.017321,
-.00684,-.018794,
-.003473,-.019696,
0.0,-.02,
0.0*
%
%ADD13MACRO13*%
%AMMACRO10*
4,1,36,0.0,-.02,
.003473,-.019696,
.00684,-.018794,
.01,-.017321,
.012856,-.015321,
.015321,-.012856,
.017321,-.01,
.018794,-.00684,
.019696,-.003473,
.02,0.0,
.019696,.003473,
.018794,.00684,
.017321,.01,
.015321,.012856,
.012856,.015321,
.01,.017321,
.00684,.018794,
.003473,.019696,
0.0,.02,
-.003473,.019696,
-.00684,.018794,
-.01,.017321,
-.012856,.015321,
-.015321,.012856,
-.017321,.01,
-.018794,.00684,
-.019696,.003473,
-.02,0.0,
-.019696,-.003473,
-.018794,-.00684,
-.017321,-.01,
-.015321,-.012856,
-.012856,-.015321,
-.01,-.017321,
-.00684,-.018794,
-.003473,-.019696,
0.0,-.02,
0.0*
%
%ADD10MACRO10*%
%ADD14C,.016*%
%ADD11C,.025*%
%ADD16C,.075*%
%ADD17C,.012*%
%ADD18C,.05*%
%ADD21C,.2044*%
%ADD20C,.1244*%
%ADD22C,.1544*%
%ADD23C,.0744*%
%ADD19C,.0994*%
G75*
%LPD*%
G75*
G36*
G01X-66000Y-85000D02*
Y92500D01*
X57500D01*
Y-85000D01*
X-66000D01*
G37*
%LPC*%
G75*
G54D21*
X-52500Y80000D03*
X45000Y-72500D03*
X-53500D03*
G54D20*
X14500Y85000D03*
G54D22*
X0Y46250D03*
Y29250D03*
Y-29250D03*
Y-46250D03*
G54D23*
Y12460D03*
Y-12460D03*
G54D19*
X34000Y85000D03*
%LPD*%
G75*
G54D10*
X-53500Y-72500D03*
X-52500Y80000D03*
X45000Y-72500D03*
G54D11*
X-49500Y-59000D03*
X-62000Y-59500D03*
Y-44500D03*
X-49500D03*
X-49000Y-31500D03*
X-62000Y-27000D03*
X-52500Y-5000D03*
X-58500D03*
X-52500Y7500D03*
X-58500D03*
X-51000Y-20000D03*
X-61000D03*
X-56000D03*
X-61000Y-10000D03*
X-51000D03*
X-56000D03*
Y-15700D03*
X-64500Y29000D03*
X-64000Y41000D03*
Y55500D03*
X-51500D03*
X-51000Y12500D03*
X-56000D03*
X-61000D03*
Y22500D03*
X-51000D03*
X-56000D03*
Y17700D03*
X-52500Y65000D03*
X-64000Y78000D03*
X-12000Y-56500D03*
X-23000Y-57500D03*
X-36500Y-58500D03*
X-6500Y-55500D03*
X-12000Y-44500D03*
X-23000D03*
X-36500D03*
X-15000Y-82500D03*
X-45000D03*
X-12500Y-8000D03*
X-20500Y-7500D03*
X-32000Y-9000D03*
X-23500Y-33000D03*
X-37000Y-31000D03*
X-36500Y-9000D03*
X-41500D03*
X-26000Y11500D03*
X-32000D03*
X-41500D03*
X-32500Y-5000D03*
X-38100D03*
X-45000D03*
X-43000Y-16000D03*
X-22500Y7500D03*
X-30000D03*
X-37500D03*
X-45000D03*
X-26000Y-21000D03*
X-14500Y-37500D03*
X-27000Y-8500D03*
X-20500Y59000D03*
X-35500Y59500D03*
X-36500Y25000D03*
X-24000D03*
X-15000Y27500D03*
X-30000Y25000D03*
X-45000D03*
X-15000Y53000D03*
X-27500D03*
X-42500D03*
X-7500Y55500D03*
X-8000Y37000D03*
X-6500Y14000D03*
Y65000D03*
X-12500Y77500D03*
X-32500D03*
X43000Y-58500D03*
X25000Y-60000D03*
X30000Y-51000D03*
X15500D03*
X49000Y-39000D03*
X7500Y-56000D03*
X43500Y-48500D03*
X25000Y-82500D03*
X7500D03*
X24500Y-24500D03*
X28000Y-13500D03*
X18500Y-13000D03*
X33000Y12000D03*
X24000D03*
X19500Y6000D03*
X23000Y-7000D03*
X14500Y-6500D03*
X29500Y-37000D03*
X16000D03*
X38500Y11500D03*
X40000Y-8000D03*
X32500D03*
X42500Y-3500D03*
X36000D03*
X29500D03*
X28500Y6000D03*
X38500D03*
X43500Y-31000D03*
X50000Y-2500D03*
X42500Y7500D03*
X50000D03*
X52500Y-10000D03*
X42500Y-20000D03*
X52500D03*
X47500D03*
Y-10000D03*
Y-15000D03*
X45500Y42000D03*
X46500Y55500D03*
X35500Y35500D03*
X36000Y50000D03*
Y61000D03*
X24000Y38500D03*
Y28500D03*
Y18000D03*
Y22000D03*
Y44500D03*
Y33000D03*
Y61500D03*
X6000Y13500D03*
Y22000D03*
X9000Y35000D03*
X9500Y40500D03*
X10000Y48000D03*
Y55500D03*
X42500Y25000D03*
X52500D03*
X47500D03*
X42500Y12500D03*
X52500D03*
X47500D03*
Y18200D03*
X9000Y64500D03*
X28500Y78000D03*
X7500Y77500D03*
X56000Y-48500D03*
Y-64500D03*
Y7000D03*
Y-30500D03*
X55500Y34000D03*
Y57500D03*
X55000Y77500D03*
G54D12*
X-56000Y-15700D03*
Y17700D03*
X47500Y-15700D03*
Y17700D03*
G54D13*
X0Y-46250D03*
Y12460D03*
Y-12460D03*
Y-29250D03*
Y46250D03*
Y29250D03*
G54D14*
X-5000Y5500D03*
Y-5500D03*
Y-20000D03*
Y8500D03*
Y-9000D03*
X0Y-5000D03*
Y5000D03*
X-1500Y-2000D03*
X1500D03*
Y2500D03*
X-1500D03*
X0Y0D03*
X-7500Y22500D03*
X5000Y5500D03*
Y-5500D03*
Y-21000D03*
Y8500D03*
Y-9000D03*
G54D15*
X-20000Y85000D03*
X14500D03*
G54D16*
X34000D03*
X44000D03*
G54D17*
G01X-60000Y160000D02*
X-60930Y159670D01*
X-61630Y158830D01*
X-62100Y157830D01*
X-62450Y156500D01*
X-62570Y155000D01*
X-62450Y153500D01*
X-62100Y152170D01*
X-61630Y151170D01*
X-60930Y150330D01*
X-60000Y150000D01*
X-59070Y150330D01*
X-58370Y151170D01*
X-57900Y152170D01*
X-57550Y153500D01*
X-57430Y155000D01*
X-57550Y156500D01*
X-57900Y157830D01*
X-58370Y158830D01*
X-59070Y159670D01*
X-60000Y160000D01*
G01X-50000Y150000D02*
X-49180Y150170D01*
X-48250Y150670D01*
X-47670Y151500D01*
X-47430Y152670D01*
X-47670Y153830D01*
X-48370Y154830D01*
X-49420Y155330D01*
X-50580D01*
X-51280Y155670D01*
X-51870Y156500D01*
X-52100Y157670D01*
X-51750Y158830D01*
X-50930Y159670D01*
X-50000Y160000D01*
X-49070Y159670D01*
X-48250Y158830D01*
X-47900Y157670D01*
X-48130Y156500D01*
X-48720Y155670D01*
X-49420Y155330D01*
X-50580D01*
X-51630Y154830D01*
X-52330Y153830D01*
X-52570Y152670D01*
X-52330Y151500D01*
X-51750Y150670D01*
X-50820Y150170D01*
X-50000Y150000D01*
G01X-41520Y153330D02*
X-38480D01*
G01X28480D02*
X31520D01*
G01X40000Y160000D02*
X39070Y159670D01*
X38370Y158830D01*
X37900Y157830D01*
X37550Y156500D01*
X37430Y155000D01*
X37550Y153500D01*
X37900Y152170D01*
X38370Y151170D01*
X39070Y150330D01*
X40000Y150000D01*
X40930Y150330D01*
X41630Y151170D01*
X42100Y152170D01*
X42450Y153500D01*
X42570Y155000D01*
X42450Y156500D01*
X42100Y157830D01*
X41630Y158830D01*
X40930Y159670D01*
X40000Y160000D01*
G01X47780Y158330D02*
X48480Y159330D01*
X49300Y159830D01*
X50230Y160000D01*
X51400Y159670D01*
X52220Y158830D01*
X52450Y157830D01*
X52330Y156830D01*
X51870Y156000D01*
X49530Y154330D01*
X48480Y153170D01*
X47780Y151500D01*
X47550Y150000D01*
X52450D01*
G01X-57430Y179170D02*
X-58130Y179670D01*
X-58950Y180000D01*
X-59880D01*
X-60930Y179500D01*
X-61750Y178670D01*
X-62330Y177670D01*
X-62800Y176000D01*
X-62920Y174500D01*
X-62680Y173000D01*
X-62330Y172000D01*
X-61630Y171000D01*
X-60820Y170330D01*
X-60000Y170000D01*
X-59180D01*
X-58370Y170330D01*
X-57670Y170830D01*
X-57080Y171500D01*
G01X-51400Y180000D02*
X-48600D01*
G01X-50000D02*
Y170000D01*
G01X-51400D02*
X-48600D01*
G01X-42330D02*
Y180000D01*
X-39420D01*
X-38480Y179500D01*
X-37900Y178830D01*
X-37670Y177500D01*
X-37900Y176170D01*
X-38600Y175330D01*
X-39420Y174830D01*
X-42330D01*
G01X-39420D02*
X-37670Y170000D01*
G01X-27430Y179170D02*
X-28130Y179670D01*
X-28950Y180000D01*
X-29880D01*
X-30930Y179500D01*
X-31750Y178670D01*
X-32330Y177670D01*
X-32800Y176000D01*
X-32920Y174500D01*
X-32680Y173000D01*
X-32330Y172000D01*
X-31630Y171000D01*
X-30820Y170330D01*
X-30000Y170000D01*
X-29180D01*
X-28370Y170330D01*
X-27670Y170830D01*
X-27080Y171500D01*
G01X-22570Y180000D02*
Y172830D01*
X-22100Y171330D01*
X-21170Y170330D01*
X-20000Y170000D01*
X-18830Y170330D01*
X-17900Y171330D01*
X-17430Y172830D01*
Y180000D01*
G01X-11400D02*
X-8600D01*
G01X-10000D02*
Y170000D01*
G01X-11400D02*
X-8600D01*
G01X0Y180000D02*
Y170000D01*
G01X-2680Y180000D02*
X2680D01*
G01X17550Y171330D02*
X18480Y170500D01*
X19530Y170000D01*
X20470D01*
X21400Y170500D01*
X22100Y171330D01*
X22450Y172500D01*
X22220Y173670D01*
X21630Y174670D01*
X20580Y175330D01*
X19180Y175670D01*
X18370Y176330D01*
X18020Y177500D01*
X18250Y178670D01*
X18830Y179500D01*
X19650Y180000D01*
X20470D01*
X21280Y179670D01*
X21980Y178830D01*
G01X28600Y180000D02*
X31400D01*
G01X30000D02*
Y170000D01*
G01X28600D02*
X31400D01*
G01X37430D02*
Y180000D01*
X39770D01*
X40700Y179500D01*
X41400Y178830D01*
X41980Y177830D01*
X42450Y176670D01*
X42570Y175000D01*
X42450Y173330D01*
X41980Y172170D01*
X41400Y171170D01*
X40700Y170500D01*
X39770Y170000D01*
X37430D01*
G01X52330D02*
X47670D01*
Y180000D01*
X52330D01*
G01X50470Y175170D02*
X47670D01*
G01X-32920Y150000D02*
X-30000Y160000D01*
X-27080Y150000D01*
G01X-28130Y153500D02*
X-31870D01*
G01X-20000Y160000D02*
X-20930Y159670D01*
X-21630Y158830D01*
X-22100Y157830D01*
X-22450Y156500D01*
X-22570Y155000D01*
X-22450Y153500D01*
X-22100Y152170D01*
X-21630Y151170D01*
X-20930Y150330D01*
X-20000Y150000D01*
X-19070Y150330D01*
X-18370Y151170D01*
X-17900Y152170D01*
X-17550Y153500D01*
X-17430Y155000D01*
X-17550Y156500D01*
X-17900Y157830D01*
X-18370Y158830D01*
X-19070Y159670D01*
X-20000Y160000D01*
G01X-10000Y150000D02*
Y160000D01*
X-11400Y158000D01*
G01Y150000D02*
X-8600D01*
G01X0D02*
X820Y150170D01*
X1750Y150670D01*
X2330Y151500D01*
X2570Y152670D01*
X2330Y153830D01*
X1630Y154830D01*
X580Y155330D01*
X-580D01*
X-1280Y155670D01*
X-1870Y156500D01*
X-2100Y157670D01*
X-1750Y158830D01*
X-930Y159670D01*
X0Y160000D01*
X930Y159670D01*
X1750Y158830D01*
X2100Y157670D01*
X1870Y156500D01*
X1280Y155670D01*
X580Y155330D01*
X-580D01*
X-1630Y154830D01*
X-2330Y153830D01*
X-2570Y152670D01*
X-2330Y151500D01*
X-1750Y150670D01*
X-820Y150170D01*
X0Y150000D01*
G01X10000Y160000D02*
X9070Y159670D01*
X8370Y158830D01*
X7900Y157830D01*
X7550Y156500D01*
X7430Y155000D01*
X7550Y153500D01*
X7900Y152170D01*
X8370Y151170D01*
X9070Y150330D01*
X10000Y150000D01*
X10930Y150330D01*
X11630Y151170D01*
X12100Y152170D01*
X12450Y153500D01*
X12570Y155000D01*
X12450Y156500D01*
X12100Y157830D01*
X11630Y158830D01*
X10930Y159670D01*
X10000Y160000D01*
G01X18020Y151170D02*
X18830Y150330D01*
X19770Y150000D01*
X20700Y150330D01*
X21520Y151330D01*
X22100Y152830D01*
X22330Y154330D01*
Y156170D01*
X22100Y157670D01*
X21520Y159000D01*
X20820Y159670D01*
X20000Y160000D01*
X19070Y159670D01*
X18370Y159000D01*
X17900Y158000D01*
X17670Y156670D01*
X17900Y155500D01*
X18480Y154330D01*
X19180Y153670D01*
X20000Y153500D01*
X20930Y153830D01*
X21630Y154670D01*
X22330Y156170D01*
G01X-27330Y130000D02*
Y140000D01*
X-24420D01*
X-23480Y139500D01*
X-22900Y138830D01*
X-22670Y137500D01*
X-22900Y136170D01*
X-23600Y135330D01*
X-24420Y134830D01*
X-27330D01*
G01X-24420D02*
X-22670Y130000D01*
G01X-12670D02*
X-17330D01*
Y140000D01*
X-12670D01*
G01X-14530Y135170D02*
X-17330D01*
G01X-7920Y140000D02*
X-5000Y130000D01*
X-2080Y140000D01*
G01X17570Y139170D02*
X16870Y139670D01*
X16050Y140000D01*
X15120D01*
X14070Y139500D01*
X13250Y138670D01*
X12670Y137670D01*
X12200Y136000D01*
X12080Y134500D01*
X12320Y133000D01*
X12670Y132000D01*
X13370Y131000D01*
X14180Y130330D01*
X15000Y130000D01*
X15820D01*
X16630Y130330D01*
X17330Y130830D01*
X17920Y131500D01*
G54D18*
G01X-71000Y-100000D02*
Y-65000D01*
G01X-81000Y-90000D02*
X-46000D01*
G01X-71000Y107500D02*
Y72500D01*
G01X-81000Y97500D02*
X-46000D01*
G01X72500Y-90000D02*
X37500D01*
G01X72500Y97500D02*
X37500D01*
G01X62500Y-100000D02*
Y-65000D01*
G01Y107500D02*
Y72500D01*
M02*
