G04 This is an RS-274x file exported by *
G04 gerbv version 2.5.0 *
G04 More information is available about gerbv at *
G04 http://gerbv.gpleda.org/ *
G04 --End of header info--*
%MOIN*%
%FSLAX23Y23*%
%IPPOS*%
G04 --Define apertures--*
%ADD10C,0.2000*%
%ADD11C,0.0800*%
%ADD12C,0.0300*%
%ADD13R,0.2100X0.0220*%
%ADD14R,0.2100X0.0700*%
%ADD15C,0.1500*%
%ADD16R,0.0550X0.0550*%
%ADD17R,0.0400X0.0450*%
%ADD18R,0.0610X0.0730*%
%ADD19O,0.0360X0.0140*%
%ADD20C,0.0500*%
%ADD21R,0.0240X0.0500*%
%ADD22C,0.0160*%
%ADD23C,0.1100*%
%ADD24R,0.0450X0.0400*%
%ADD25R,0.0370X0.0400*%
%ADD26C,0.0850*%
%ADD27C,0.0120*%
G04 --Start main section--*
G36*
G01X-0460Y00260D02*
G01X-0460Y-0240D01*
G01X-0685Y-0240D01*
G01X-0685Y00260D01*
G01X-0460Y00260D01*
G37*
G36*
G01X-0480Y00070D02*
G01X-0480Y-0075D01*
G01X-0110Y-0075D01*
G01X-0110Y00070D01*
G01X-0480Y00070D01*
G37*
G36*
G01X00115Y00070D02*
G01X00115Y-0075D01*
G01X00485Y-0075D01*
G01X00485Y00070D01*
G01X00115Y00070D01*
G37*
G36*
G01X00375Y-0240D02*
G01X00375Y00260D01*
G01X00600Y00260D01*
G01X00600Y-0240D01*
G01X00375Y-0240D01*
G37*
G36*
G01X00110Y00110D02*
G01X00255Y00110D01*
G01X00255Y00480D01*
G01X00110Y00480D01*
G01X00110Y00110D01*
G37*
G54D10*
G01X-0535Y-0725D03*
G01X-0525Y00800D03*
G01X00450Y-0725D03*
G54D11*
G01X-0525Y-0525D03*
G01X00475Y-0525D03*
G01X00475Y00700D03*
G54D20*
G01X00000Y00125D03*
G01X00000Y-0125D03*
G54D12*
G01X-0495Y-0590D03*
G01X-0620Y-0595D03*
G01X-0620Y-0445D03*
G01X-0495Y-0445D03*
G01X-0490Y-0315D03*
G01X-0620Y-0270D03*
G01X-0525Y-0050D03*
G01X-0585Y-0050D03*
G01X-0525Y00075D03*
G01X-0585Y00075D03*
G01X-0510Y-0200D03*
G01X-0610Y-0200D03*
G01X-0560Y-0200D03*
G01X-0610Y-0100D03*
G01X-0510Y-0100D03*
G01X-0560Y-0100D03*
G01X-0560Y-0157D03*
G01X-0645Y00290D03*
G01X-0640Y00410D03*
G01X-0640Y00555D03*
G01X-0515Y00555D03*
G01X-0510Y00125D03*
G01X-0560Y00125D03*
G01X-0610Y00125D03*
G01X-0610Y00225D03*
G01X-0510Y00225D03*
G01X-0560Y00225D03*
G01X-0560Y00177D03*
G01X-0525Y00650D03*
G01X-0640Y00780D03*
G01X-0120Y-0565D03*
G01X-0230Y-0575D03*
G01X-0365Y-0585D03*
G01X-0065Y-0555D03*
G01X-0120Y-0445D03*
G01X-0230Y-0445D03*
G01X-0365Y-0445D03*
G01X-0150Y-0825D03*
G01X-0450Y-0825D03*
G01X-0125Y-0080D03*
G01X-0205Y-0075D03*
G01X-0320Y-0090D03*
G01X-0235Y-0330D03*
G01X-0370Y-0310D03*
G01X-0365Y-0090D03*
G01X-0415Y-0090D03*
G01X-0260Y00115D03*
G01X-0320Y00115D03*
G01X-0415Y00115D03*
G01X-0325Y-0050D03*
G01X-0381Y-0050D03*
G01X-0450Y-0050D03*
G01X-0430Y-0160D03*
G01X-0225Y00075D03*
G01X-0300Y00075D03*
G01X-0375Y00075D03*
G01X-0450Y00075D03*
G01X-0260Y-0210D03*
G01X-0145Y-0375D03*
G01X-0270Y-0085D03*
G01X-0205Y00590D03*
G01X-0355Y00595D03*
G01X-0365Y00250D03*
G01X-0240Y00250D03*
G01X-0150Y00275D03*
G01X-0300Y00250D03*
G01X-0450Y00250D03*
G01X-0150Y00530D03*
G01X-0275Y00530D03*
G01X-0425Y00530D03*
G01X-0075Y00555D03*
G01X-0080Y00370D03*
G01X-0065Y00140D03*
G01X-0065Y00650D03*
G01X-0125Y00775D03*
G01X-0325Y00775D03*
G01X00430Y-0585D03*
G01X00250Y-0600D03*
G01X00300Y-0510D03*
G01X00155Y-0510D03*
G01X00490Y-0390D03*
G01X00075Y-0560D03*
G01X00435Y-0485D03*
G01X00250Y-0825D03*
G01X00075Y-0825D03*
G01X00245Y-0245D03*
G01X00280Y-0135D03*
G01X00185Y-0130D03*
G01X00330Y00120D03*
G01X00240Y00120D03*
G01X00195Y00060D03*
G01X00230Y-0070D03*
G01X00145Y-0065D03*
G01X00295Y-0370D03*
G01X00160Y-0370D03*
G01X00385Y00115D03*
G01X00400Y-0080D03*
G01X00325Y-0080D03*
G01X00425Y-0035D03*
G01X00360Y-0035D03*
G01X00295Y-0035D03*
G01X00285Y00060D03*
G01X00385Y00060D03*
G01X00435Y-0310D03*
G01X00500Y-0025D03*
G01X00425Y00075D03*
G01X00500Y00075D03*
G01X00525Y-0100D03*
G01X00425Y-0200D03*
G01X00525Y-0200D03*
G01X00475Y-0200D03*
G01X00475Y-0100D03*
G01X00475Y-0150D03*
G01X00455Y00420D03*
G01X00465Y00555D03*
G01X00355Y00355D03*
G01X00360Y00500D03*
G01X00360Y00610D03*
G01X00240Y00385D03*
G01X00240Y00285D03*
G01X00240Y00180D03*
G01X00240Y00220D03*
G01X00240Y00445D03*
G01X00240Y00330D03*
G01X00240Y00615D03*
G01X00060Y00135D03*
G01X00060Y00220D03*
G01X00090Y00350D03*
G01X00095Y00405D03*
G01X00100Y00480D03*
G01X00100Y00555D03*
G01X00425Y00250D03*
G01X00525Y00250D03*
G01X00475Y00250D03*
G01X00425Y00125D03*
G01X00525Y00125D03*
G01X00475Y00125D03*
G01X00475Y00182D03*
G01X00090Y00645D03*
G01X00285Y00780D03*
G01X00075Y00775D03*
G01X00560Y-0485D03*
G01X00560Y-0645D03*
G01X00560Y00070D03*
G01X00560Y-0305D03*
G01X00555Y00340D03*
G01X00555Y00575D03*
G01X00550Y00775D03*
G54D21*
G01X-0186Y00010D03*
G01X-0154Y00010D03*
G54D22*
G01X-0050Y00055D03*
G01X-0050Y-0055D03*
G01X-0050Y-0200D03*
G01X-0050Y00085D03*
G01X-0050Y-0090D03*
G01X00000Y-0050D03*
G01X00000Y00050D03*
G01X-0015Y-0020D03*
G01X00015Y-0020D03*
G01X00015Y00025D03*
G01X-0015Y00025D03*
G01X00000Y00000D03*
G01X-0075Y00225D03*
G01X00050Y00055D03*
G01X00050Y-0055D03*
G01X00050Y-0210D03*
G01X00050Y00085D03*
G01X00050Y-0090D03*
G54D13*
G01X-0560Y00010D03*
G01X00475Y00010D03*
G54D14*
G01X-0560Y-0157D03*
G01X-0560Y00177D03*
G01X00475Y-0157D03*
G01X00475Y00177D03*
G54D23*
G01X-0200Y00850D03*
G01X00145Y00850D03*
G54D24*
G01X00260Y00010D03*
G01X00310Y00010D03*
G01X00145Y00445D03*
G01X00195Y00445D03*
G01X00145Y00615D03*
G01X00195Y00615D03*
G01X00145Y00330D03*
G01X00195Y00330D03*
G54D15*
G01X00000Y-0462D03*
G01X00000Y-0292D03*
G01X00000Y00463D03*
G01X00000Y00293D03*
G54D16*
G01X-0150Y00117D03*
G01X-0150Y00184D03*
G01X00145Y00739D03*
G01X00145Y00672D03*
G54D25*
G01X00145Y00564D03*
G01X00145Y00506D03*
G54D26*
G01X00340Y00850D03*
G01X00440Y00850D03*
G54D17*
G01X-0270Y00010D03*
G01X-0270Y-0040D03*
G54D18*
G01X00000Y00000D03*
G54D19*
G01X-0053Y-0010D03*
G01X-0053Y-0029D03*
G01X-0053Y00010D03*
G01X-0053Y00030D03*
G01X00053Y-0029D03*
G01X00053Y-0010D03*
G01X00053Y00010D03*
G01X00053Y00030D03*
M02*
