G04 This is an RS-274x file exported by *
G04 gerbv version 2.5.0 *
G04 More information is available about gerbv at *
G04 http://gerbv.gpleda.org/ *
G04 --End of header info--*
%MOIN*%
%FSLAX23Y23*%
%IPPOS*%
G04 --Define apertures--*
%ADD10C,0.0020*%
%ADD11C,0.0080*%
%ADD12C,0.0120*%
%ADD13C,0.0500*%
%ADD14C,0.0600*%
%ADD15C,0.0224*%
G04 --Start main section--*
G36*
G01X-0535Y-0455D02*
G01X-0565Y-0455D01*
G01X-0508Y-0403D01*
G01X-0507Y-0402D01*
G01X-0450Y-0455D01*
G01X-0480Y-0455D01*
G75*
G03X-0255Y-0492I00115J-0001D01*
G01X-0223Y-0525D01*
G01X-0203Y-0503D01*
G75*
G02X-0535Y-0455I-0163J00047D01*
G37*
G36*
G01X-0195Y-0455D02*
G01X-0165Y-0455D01*
G01X-0222Y-0507D01*
G01X-0223Y-0508D01*
G01X-0280Y-0455D01*
G01X-0250Y-0455D01*
G75*
G03X-0475Y-0418I-0115J00001D01*
G01X-0507Y-0385D01*
G01X-0527Y-0407D01*
G75*
G02X-0195Y-0455I00163J-0047D01*
G37*
G36*
G01X-0320Y-0468D02*
G01X-0442Y-0468D01*
G75*
G02X-0434Y-0491I00077J00013D01*
G01X-0433Y-0490D01*
G75*
G03X-0320Y-0468I00050J00043D01*
G37*
G36*
G01X-0355Y00548D02*
G75*
G03X-0355Y00548I-0018J00000D01*
G37*
G36*
G01X-0233Y00548D02*
G01X-0233Y00588D01*
G01X-0248Y00588D01*
G01X-0248Y00548D01*
G01X-0233Y00548D01*
G37*
G36*
G01X-0258Y00483D02*
G01X-0258Y00463D01*
G01X-0328Y00463D01*
G01X-0328Y00483D01*
G01X-0258Y00483D01*
G37*
G36*
G01X-0337Y00318D02*
G75*
G03X-0337Y00318I-0026J00000D01*
G37*
G36*
G01X-0223Y00296D02*
G01X-0233Y00296D01*
G01X-0233Y00313D01*
G01X-0223Y00313D01*
G01X-0223Y00296D01*
G37*
%LPC*%
G36*
G01X-0410Y-0443D02*
G01X-0320Y-0443D01*
G75*
G03X-0410Y-0443I-0045J-0010D01*
G37*
G54D15*
G01X-0363Y00318D03*
%LPD*%
G54D10*
G01X-0076Y-0825D02*
G01X-0086Y-0780D01*
G01X-0086Y-0780D02*
G01X-0096Y-0825D01*
G01X-0092Y-0809D02*
G01X-0080Y-0809D01*
G01X-0124Y-0780D02*
G01X-0121Y-0781D01*
G01X-0121Y-0781D02*
G01X-0119Y-0785D01*
G01X-0119Y-0785D02*
G01X-0117Y-0790D01*
G01X-0117Y-0790D02*
G01X-0116Y-0796D01*
G01X-0116Y-0796D02*
G01X-0116Y-0802D01*
G01X-0116Y-0802D02*
G01X-0116Y-0809D01*
G01X-0116Y-0809D02*
G01X-0117Y-0815D01*
G01X-0117Y-0815D02*
G01X-0119Y-0820D01*
G01X-0119Y-0820D02*
G01X-0121Y-0823D01*
G01X-0121Y-0823D02*
G01X-0124Y-0825D01*
G01X-0124Y-0825D02*
G01X-0127Y-0823D01*
G01X-0127Y-0823D02*
G01X-0129Y-0820D01*
G01X-0129Y-0820D02*
G01X-0131Y-0815D01*
G01X-0131Y-0815D02*
G01X-0132Y-0809D01*
G01X-0132Y-0809D02*
G01X-0132Y-0802D01*
G01X-0132Y-0802D02*
G01X-0132Y-0796D01*
G01X-0132Y-0796D02*
G01X-0131Y-0790D01*
G01X-0131Y-0790D02*
G01X-0129Y-0785D01*
G01X-0129Y-0785D02*
G01X-0127Y-0781D01*
G01X-0127Y-0781D02*
G01X-0124Y-0780D01*
G01X-0162Y-0825D02*
G01X-0162Y-0780D01*
G01X-0162Y-0780D02*
G01X-0157Y-0789D01*
G01X-0157Y-0825D02*
G01X-0167Y-0825D01*
G01X-0200Y-0825D02*
G01X-0203Y-0824D01*
G01X-0203Y-0824D02*
G01X-0206Y-0822D01*
G01X-0206Y-0822D02*
G01X-0208Y-0818D01*
G01X-0208Y-0818D02*
G01X-0208Y-0813D01*
G01X-0208Y-0813D02*
G01X-0208Y-0808D01*
G01X-0208Y-0808D02*
G01X-0205Y-0803D01*
G01X-0205Y-0803D02*
G01X-0202Y-0801D01*
G01X-0202Y-0801D02*
G01X-0198Y-0801D01*
G01X-0198Y-0801D02*
G01X-0196Y-0799D01*
G01X-0196Y-0799D02*
G01X-0194Y-0796D01*
G01X-0194Y-0796D02*
G01X-0193Y-0790D01*
G01X-0193Y-0790D02*
G01X-0194Y-0785D01*
G01X-0194Y-0785D02*
G01X-0197Y-0781D01*
G01X-0197Y-0781D02*
G01X-0200Y-0780D01*
G01X-0200Y-0780D02*
G01X-0203Y-0781D01*
G01X-0203Y-0781D02*
G01X-0206Y-0785D01*
G01X-0206Y-0785D02*
G01X-0207Y-0790D01*
G01X-0207Y-0790D02*
G01X-0206Y-0796D01*
G01X-0206Y-0796D02*
G01X-0204Y-0799D01*
G01X-0204Y-0799D02*
G01X-0202Y-0801D01*
G01X-0202Y-0801D02*
G01X-0198Y-0801D01*
G01X-0198Y-0801D02*
G01X-0195Y-0803D01*
G01X-0195Y-0803D02*
G01X-0192Y-0808D01*
G01X-0192Y-0808D02*
G01X-0192Y-0813D01*
G01X-0192Y-0813D02*
G01X-0192Y-0818D01*
G01X-0192Y-0818D02*
G01X-0194Y-0822D01*
G01X-0194Y-0822D02*
G01X-0197Y-0824D01*
G01X-0197Y-0824D02*
G01X-0200Y-0825D01*
G01X-0238Y-0780D02*
G01X-0235Y-0781D01*
G01X-0235Y-0781D02*
G01X-0233Y-0785D01*
G01X-0233Y-0785D02*
G01X-0231Y-0790D01*
G01X-0231Y-0790D02*
G01X-0230Y-0796D01*
G01X-0230Y-0796D02*
G01X-0230Y-0802D01*
G01X-0230Y-0802D02*
G01X-0230Y-0809D01*
G01X-0230Y-0809D02*
G01X-0231Y-0815D01*
G01X-0231Y-0815D02*
G01X-0233Y-0820D01*
G01X-0233Y-0820D02*
G01X-0235Y-0823D01*
G01X-0235Y-0823D02*
G01X-0238Y-0825D01*
G01X-0238Y-0825D02*
G01X-0241Y-0823D01*
G01X-0241Y-0823D02*
G01X-0243Y-0820D01*
G01X-0243Y-0820D02*
G01X-0245Y-0815D01*
G01X-0245Y-0815D02*
G01X-0246Y-0809D01*
G01X-0246Y-0809D02*
G01X-0246Y-0802D01*
G01X-0246Y-0802D02*
G01X-0246Y-0796D01*
G01X-0246Y-0796D02*
G01X-0245Y-0790D01*
G01X-0245Y-0790D02*
G01X-0243Y-0785D01*
G01X-0243Y-0785D02*
G01X-0241Y-0781D01*
G01X-0241Y-0781D02*
G01X-0238Y-0780D01*
G01X-0269Y-0820D02*
G01X-0272Y-0823D01*
G01X-0272Y-0823D02*
G01X-0275Y-0825D01*
G01X-0275Y-0825D02*
G01X-0278Y-0823D01*
G01X-0278Y-0823D02*
G01X-0281Y-0819D01*
G01X-0281Y-0819D02*
G01X-0283Y-0812D01*
G01X-0283Y-0812D02*
G01X-0284Y-0805D01*
G01X-0284Y-0805D02*
G01X-0284Y-0797D01*
G01X-0284Y-0797D02*
G01X-0283Y-0790D01*
G01X-0283Y-0790D02*
G01X-0281Y-0784D01*
G01X-0281Y-0784D02*
G01X-0279Y-0781D01*
G01X-0279Y-0781D02*
G01X-0276Y-0780D01*
G01X-0276Y-0780D02*
G01X-0273Y-0781D01*
G01X-0273Y-0781D02*
G01X-0271Y-0784D01*
G01X-0271Y-0784D02*
G01X-0269Y-0789D01*
G01X-0269Y-0789D02*
G01X-0268Y-0795D01*
G01X-0268Y-0795D02*
G01X-0269Y-0800D01*
G01X-0269Y-0800D02*
G01X-0271Y-0805D01*
G01X-0271Y-0805D02*
G01X-0273Y-0808D01*
G01X-0273Y-0808D02*
G01X-0276Y-0809D01*
G01X-0276Y-0809D02*
G01X-0279Y-0808D01*
G01X-0279Y-0808D02*
G01X-0281Y-0804D01*
G01X-0281Y-0804D02*
G01X-0284Y-0797D01*
G01X-0322Y-0784D02*
G01X-0320Y-0781D01*
G01X-0320Y-0781D02*
G01X-0317Y-0780D01*
G01X-0317Y-0780D02*
G01X-0314Y-0780D01*
G01X-0314Y-0780D02*
G01X-0311Y-0782D01*
G01X-0311Y-0782D02*
G01X-0308Y-0786D01*
G01X-0308Y-0786D02*
G01X-0306Y-0790D01*
G01X-0306Y-0790D02*
G01X-0305Y-0798D01*
G01X-0305Y-0798D02*
G01X-0304Y-0805D01*
G01X-0304Y-0805D02*
G01X-0305Y-0811D01*
G01X-0305Y-0811D02*
G01X-0306Y-0816D01*
G01X-0306Y-0816D02*
G01X-0309Y-0820D01*
G01X-0309Y-0820D02*
G01X-0311Y-0823D01*
G01X-0311Y-0823D02*
G01X-0314Y-0825D01*
G01X-0314Y-0825D02*
G01X-0317Y-0825D01*
G01X-0317Y-0825D02*
G01X-0319Y-0823D01*
G01X-0319Y-0823D02*
G01X-0322Y-0821D01*
G01X-0322Y-0821D02*
G01X-0324Y-0818D01*
G54D11*
G01X-0368Y00513D02*
G01X-0368Y00473D01*
G01X-0368Y00473D02*
G01X-0398Y00473D01*
G01X-0398Y00473D02*
G01X-0398Y00513D01*
G01X-0398Y00513D02*
G01X-0368Y00513D01*
G01X-0368Y00513D02*
G01X-0368Y00503D01*
G01X-0263Y00593D02*
G01X-0323Y00593D01*
G01X-0323Y00593D02*
G01X-0323Y00568D01*
G01X-0323Y00568D02*
G01X-0263Y00568D01*
G01X-0263Y00568D02*
G01X-0263Y00593D01*
G01X-0263Y00593D02*
G01X-0273Y00593D01*
G01X-0193Y00548D02*
G01X-0393Y00548D01*
G01X-0343Y00313D02*
G01X-0218Y00313D01*
G01X-0218Y00313D02*
G01X-0213Y00548D01*
G01X-0213Y00548D02*
G75*
G03X-0373Y00548I-0080J-0050D01*
G01X-0373Y00548D02*
G01X-0368Y00333D01*
G01X-0148Y00263D02*
G01X-0438Y00628D01*
G01X-0438Y00263D02*
G01X-0148Y00628D01*
G01X00053Y00870D02*
G01X00040Y00830D01*
G01X00040Y00830D02*
G01X00028Y00870D01*
G01X00000Y00830D02*
G01X00000Y00870D01*
G01X00000Y00870D02*
G01X-0012Y00870D01*
G01X-0012Y00870D02*
G01X-0016Y00868D01*
G01X-0016Y00868D02*
G01X-0019Y00863D01*
G01X-0019Y00863D02*
G01X-0020Y00858D01*
G01X-0020Y00858D02*
G01X-0019Y00853D01*
G01X-0019Y00853D02*
G01X-0016Y00849D01*
G01X-0016Y00849D02*
G01X-0012Y00847D01*
G01X-0012Y00847D02*
G01X00000Y00847D01*
G01X-0060Y00830D02*
G01X-0056Y00831D01*
G01X-0056Y00831D02*
G01X-0052Y00833D01*
G01X-0052Y00833D02*
G01X-0049Y00837D01*
G01X-0049Y00837D02*
G01X-0047Y00842D01*
G01X-0047Y00842D02*
G01X-0046Y00847D01*
G01X-0046Y00847D02*
G01X-0046Y00853D01*
G01X-0046Y00853D02*
G01X-0047Y00858D01*
G01X-0047Y00858D02*
G01X-0049Y00863D01*
G01X-0049Y00863D02*
G01X-0052Y00867D01*
G01X-0052Y00867D02*
G01X-0056Y00869D01*
G01X-0056Y00869D02*
G01X-0060Y00870D01*
G01X-0060Y00870D02*
G01X-0064Y00869D01*
G01X-0064Y00869D02*
G01X-0067Y00867D01*
G01X-0067Y00867D02*
G01X-0070Y00863D01*
G01X-0070Y00863D02*
G01X-0072Y00858D01*
G01X-0072Y00858D02*
G01X-0073Y00853D01*
G01X-0073Y00853D02*
G01X-0073Y00847D01*
G01X-0073Y00847D02*
G01X-0072Y00842D01*
G01X-0072Y00842D02*
G01X-0070Y00837D01*
G01X-0070Y00837D02*
G01X-0067Y00833D01*
G01X-0067Y00833D02*
G01X-0064Y00831D01*
G01X-0064Y00831D02*
G01X-0060Y00830D01*
G01X-0099Y00835D02*
G01X-0103Y00832D01*
G01X-0103Y00832D02*
G01X-0108Y00830D01*
G01X-0108Y00830D02*
G01X-0112Y00830D01*
G01X-0112Y00830D02*
G01X-0116Y00832D01*
G01X-0116Y00832D02*
G01X-0119Y00835D01*
G01X-0119Y00835D02*
G01X-0120Y00840D01*
G01X-0120Y00840D02*
G01X-0119Y00845D01*
G01X-0119Y00845D02*
G01X-0117Y00849D01*
G01X-0117Y00849D02*
G01X-0112Y00851D01*
G01X-0112Y00851D02*
G01X-0106Y00853D01*
G01X-0106Y00853D02*
G01X-0103Y00855D01*
G01X-0103Y00855D02*
G01X-0101Y00860D01*
G01X-0101Y00860D02*
G01X-0102Y00865D01*
G01X-0102Y00865D02*
G01X-0105Y00868D01*
G01X-0105Y00868D02*
G01X-0108Y00870D01*
G01X-0108Y00870D02*
G01X-0112Y00870D01*
G01X-0112Y00870D02*
G01X-0115Y00869D01*
G01X-0115Y00869D02*
G01X-0118Y00865D01*
G01X-0303Y00860D02*
G01X-0313Y00860D01*
G01X-0313Y00860D02*
G01X-0313Y00848D01*
G01X-0313Y00848D02*
G01X-0310Y00844D01*
G01X-0310Y00844D02*
G01X-0306Y00841D01*
G01X-0306Y00841D02*
G01X-0301Y00840D01*
G01X-0301Y00840D02*
G01X-0296Y00841D01*
G01X-0296Y00841D02*
G01X-0293Y00844D01*
G01X-0293Y00844D02*
G01X-0290Y00848D01*
G01X-0290Y00848D02*
G01X-0288Y00853D01*
G01X-0288Y00853D02*
G01X-0287Y00858D01*
G01X-0287Y00858D02*
G01X-0287Y00863D01*
G01X-0287Y00863D02*
G01X-0288Y00867D01*
G01X-0288Y00867D02*
G01X-0290Y00871D01*
G01X-0290Y00871D02*
G01X-0293Y00875D01*
G01X-0293Y00875D02*
G01X-0296Y00878D01*
G01X-0296Y00878D02*
G01X-0300Y00880D01*
G01X-0300Y00880D02*
G01X-0303Y00880D01*
G01X-0303Y00880D02*
G01X-0307Y00879D01*
G01X-0307Y00879D02*
G01X-0310Y00876D01*
G01X-0338Y00840D02*
G01X-0338Y00880D01*
G01X-0338Y00880D02*
G01X-0361Y00840D01*
G01X-0361Y00840D02*
G01X-0361Y00880D01*
G01X-0389Y00840D02*
G01X-0389Y00880D01*
G01X-0389Y00880D02*
G01X-0399Y00880D01*
G01X-0399Y00880D02*
G01X-0403Y00878D01*
G01X-0403Y00878D02*
G01X-0406Y00875D01*
G01X-0406Y00875D02*
G01X-0408Y00871D01*
G01X-0408Y00871D02*
G01X-0410Y00867D01*
G01X-0410Y00867D02*
G01X-0411Y00860D01*
G01X-0411Y00860D02*
G01X-0410Y00853D01*
G01X-0410Y00853D02*
G01X-0408Y00849D01*
G01X-0408Y00849D02*
G01X-0406Y00845D01*
G01X-0406Y00845D02*
G01X-0403Y00842D01*
G01X-0403Y00842D02*
G01X-0399Y00840D01*
G01X-0399Y00840D02*
G01X-0389Y00840D01*
G01X-0125Y00590D02*
G01X00125Y00590D01*
G01X00125Y00590D02*
G01X00125Y-0590D01*
G01X00125Y-0590D02*
G01X-0125Y-0590D01*
G01X-0125Y-0590D02*
G01X-0125Y00590D01*
G01X-0135Y00850D02*
G75*
G03X-0135Y00850I-0065J00000D01*
G01X00298Y-0762D02*
G01X00148Y-0762D01*
G01X00148Y-0762D02*
G01X00148Y-0612D01*
G01X00148Y-0612D02*
G01X00298Y-0612D01*
G01X00298Y-0612D02*
G01X00298Y-0762D01*
G01X00263Y-0732D02*
G01X00148Y-0732D01*
G01X00243Y-0722D02*
G01X00148Y-0722D01*
G01X00203Y-0712D02*
G01X00223Y-0712D01*
G01X00223Y-0712D02*
G01X00148Y-0712D01*
G01X00263Y-0642D02*
G01X00148Y-0642D01*
G01X00243Y-0652D02*
G01X00148Y-0652D01*
G01X00223Y-0662D02*
G01X00148Y-0662D01*
G01X00203Y-0702D02*
G01X00148Y-0702D01*
G01X00183Y-0692D02*
G01X00148Y-0692D01*
G01X00183Y-0682D02*
G01X00148Y-0682D01*
G01X00203Y-0672D02*
G01X00148Y-0672D01*
G01X00298Y-0752D02*
G01X00148Y-0752D01*
G01X00298Y-0742D02*
G01X00148Y-0742D01*
G01X00298Y-0732D02*
G01X00273Y-0732D01*
G01X00298Y-0722D02*
G01X00273Y-0722D01*
G01X00298Y-0712D02*
G01X00273Y-0712D01*
G01X00298Y-0702D02*
G01X00273Y-0702D01*
G01X00298Y-0692D02*
G01X00273Y-0692D01*
G01X00298Y-0682D02*
G01X00273Y-0682D01*
G01X00298Y-0672D02*
G01X00273Y-0672D01*
G01X00298Y-0662D02*
G01X00273Y-0662D01*
G01X00298Y-0652D02*
G01X00273Y-0652D01*
G01X00298Y-0642D02*
G01X00273Y-0642D01*
G01X00298Y-0632D02*
G01X00148Y-0632D01*
G01X00298Y-0622D02*
G01X00148Y-0622D01*
G01X00298Y-0612D02*
G01X00198Y-0612D01*
G01X00298Y-0762D02*
G01X00248Y-0762D01*
G01X00273Y-0637D02*
G01X00173Y-0687D01*
G01X00173Y-0687D02*
G01X00273Y-0737D01*
G01X00273Y-0737D02*
G01X00273Y-0637D01*
G01X00210Y00850D02*
G75*
G03X00210Y00850I-0065J00000D01*
G54D12*
G01X00123Y-0757D02*
G01X00123Y-0707D01*
G01X00123Y-0707D02*
G01X00112Y-0707D01*
G01X00112Y-0707D02*
G01X00107Y-0709D01*
G01X00107Y-0709D02*
G01X00104Y-0713D01*
G01X00104Y-0713D02*
G01X00101Y-0718D01*
G01X00101Y-0718D02*
G01X00098Y-0724D01*
G01X00098Y-0724D02*
G01X00098Y-0732D01*
G01X00098Y-0732D02*
G01X00098Y-0740D01*
G01X00098Y-0740D02*
G01X00101Y-0746D01*
G01X00101Y-0746D02*
G01X00104Y-0751D01*
G01X00104Y-0751D02*
G01X00107Y-0754D01*
G01X00107Y-0754D02*
G01X00112Y-0757D01*
G01X00112Y-0757D02*
G01X00123Y-0757D01*
G01X00056Y-0757D02*
G01X00079Y-0757D01*
G01X00079Y-0757D02*
G01X00079Y-0707D01*
G01X00079Y-0707D02*
G01X00056Y-0707D01*
G01X00065Y-0731D02*
G01X00079Y-0731D01*
G01X00039Y-0707D02*
G01X00025Y-0757D01*
G01X00025Y-0757D02*
G01X00010Y-0707D01*
G01X-0011Y-0707D02*
G01X-0025Y-0707D01*
G01X-0018Y-0707D02*
G01X-0018Y-0757D01*
G01X-0011Y-0757D02*
G01X-0025Y-0757D01*
G01X-0074Y-0711D02*
G01X-0071Y-0709D01*
G01X-0071Y-0709D02*
G01X-0067Y-0707D01*
G01X-0067Y-0707D02*
G01X-0062Y-0707D01*
G01X-0062Y-0707D02*
G01X-0057Y-0709D01*
G01X-0057Y-0709D02*
G01X-0053Y-0714D01*
G01X-0053Y-0714D02*
G01X-0050Y-0719D01*
G01X-0050Y-0719D02*
G01X-0047Y-0727D01*
G01X-0047Y-0727D02*
G01X-0047Y-0734D01*
G01X-0047Y-0734D02*
G01X-0048Y-0742D01*
G01X-0048Y-0742D02*
G01X-0050Y-0747D01*
G01X-0050Y-0747D02*
G01X-0053Y-0752D01*
G01X-0053Y-0752D02*
G01X-0057Y-0755D01*
G01X-0057Y-0755D02*
G01X-0061Y-0757D01*
G01X-0061Y-0757D02*
G01X-0066Y-0757D01*
G01X-0066Y-0757D02*
G01X-0070Y-0755D01*
G01X-0070Y-0755D02*
G01X-0073Y-0753D01*
G01X-0073Y-0753D02*
G01X-0076Y-0749D01*
G01X-0116Y-0757D02*
G01X-0093Y-0757D01*
G01X-0093Y-0757D02*
G01X-0093Y-0707D01*
G01X-0093Y-0707D02*
G01X-0116Y-0707D01*
G01X-0107Y-0731D02*
G01X-0093Y-0731D01*
G01X-0135Y-0750D02*
G01X-0140Y-0754D01*
G01X-0140Y-0754D02*
G01X-0145Y-0757D01*
G01X-0145Y-0757D02*
G01X-0150Y-0757D01*
G01X-0150Y-0757D02*
G01X-0154Y-0754D01*
G01X-0154Y-0754D02*
G01X-0158Y-0750D01*
G01X-0158Y-0750D02*
G01X-0160Y-0744D01*
G01X-0160Y-0744D02*
G01X-0159Y-0739D01*
G01X-0159Y-0739D02*
G01X-0156Y-0734D01*
G01X-0156Y-0734D02*
G01X-0150Y-0730D01*
G01X-0150Y-0730D02*
G01X-0143Y-0729D01*
G01X-0143Y-0729D02*
G01X-0139Y-0725D01*
G01X-0139Y-0725D02*
G01X-0138Y-0719D01*
G01X-0138Y-0719D02*
G01X-0139Y-0714D01*
G01X-0139Y-0714D02*
G01X-0142Y-0709D01*
G01X-0142Y-0709D02*
G01X-0146Y-0707D01*
G01X-0146Y-0707D02*
G01X-0150Y-0707D01*
G01X-0150Y-0707D02*
G01X-0154Y-0709D01*
G01X-0154Y-0709D02*
G01X-0157Y-0713D01*
G01X00125Y-0672D02*
G01X00109Y-0622D01*
G01X00109Y-0622D02*
G01X00093Y-0672D01*
G01X00099Y-0654D02*
G01X00119Y-0654D01*
G01X00074Y-0672D02*
G01X00074Y-0622D01*
G01X00074Y-0622D02*
G01X00044Y-0672D01*
G01X00044Y-0672D02*
G01X00044Y-0622D01*
G01X00025Y-0672D02*
G01X00009Y-0622D01*
G01X00009Y-0622D02*
G01X-0007Y-0672D01*
G01X-0001Y-0654D02*
G01X00019Y-0654D01*
G01X-0028Y-0622D02*
G01X-0028Y-0672D01*
G01X-0028Y-0672D02*
G01X-0054Y-0672D01*
G01X-0091Y-0672D02*
G01X-0086Y-0671D01*
G01X-0086Y-0671D02*
G01X-0081Y-0668D01*
G01X-0081Y-0668D02*
G01X-0078Y-0663D01*
G01X-0078Y-0663D02*
G01X-0075Y-0657D01*
G01X-0075Y-0657D02*
G01X-0074Y-0650D01*
G01X-0074Y-0650D02*
G01X-0074Y-0644D01*
G01X-0074Y-0644D02*
G01X-0075Y-0637D01*
G01X-0075Y-0637D02*
G01X-0078Y-0631D01*
G01X-0078Y-0631D02*
G01X-0081Y-0626D01*
G01X-0081Y-0626D02*
G01X-0086Y-0623D01*
G01X-0086Y-0623D02*
G01X-0091Y-0622D01*
G01X-0091Y-0622D02*
G01X-0096Y-0623D01*
G01X-0096Y-0623D02*
G01X-0100Y-0626D01*
G01X-0100Y-0626D02*
G01X-0104Y-0631D01*
G01X-0104Y-0631D02*
G01X-0107Y-0637D01*
G01X-0107Y-0637D02*
G01X-0108Y-0644D01*
G01X-0108Y-0644D02*
G01X-0108Y-0650D01*
G01X-0108Y-0650D02*
G01X-0107Y-0657D01*
G01X-0107Y-0657D02*
G01X-0104Y-0663D01*
G01X-0104Y-0663D02*
G01X-0100Y-0668D01*
G01X-0100Y-0668D02*
G01X-0096Y-0671D01*
G01X-0096Y-0671D02*
G01X-0091Y-0672D01*
G01X-0145Y-0647D02*
G01X-0157Y-0647D01*
G01X-0157Y-0647D02*
G01X-0157Y-0662D01*
G01X-0157Y-0662D02*
G01X-0154Y-0667D01*
G01X-0154Y-0667D02*
G01X-0149Y-0670D01*
G01X-0149Y-0670D02*
G01X-0143Y-0672D01*
G01X-0143Y-0672D02*
G01X-0137Y-0670D01*
G01X-0137Y-0670D02*
G01X-0132Y-0667D01*
G01X-0132Y-0667D02*
G01X-0128Y-0662D01*
G01X-0128Y-0662D02*
G01X-0126Y-0656D01*
G01X-0126Y-0656D02*
G01X-0124Y-0649D01*
G01X-0124Y-0649D02*
G01X-0124Y-0644D01*
G01X-0124Y-0644D02*
G01X-0126Y-0639D01*
G01X-0126Y-0639D02*
G01X-0128Y-0633D01*
G01X-0128Y-0633D02*
G01X-0132Y-0628D01*
G01X-0132Y-0628D02*
G01X-0136Y-0624D01*
G01X-0136Y-0624D02*
G01X-0141Y-0622D01*
G01X-0141Y-0622D02*
G01X-0145Y-0622D01*
G01X-0145Y-0622D02*
G01X-0150Y-0624D01*
G01X-0150Y-0624D02*
G01X-0154Y-0627D01*
G54D14*
G01X-0173Y00138D02*
G01X-0413Y00138D01*
M02*
