;LEADER: 12 
;HEADER: a01809c 
;CODE  : ASCII 
;FILE  : ncdrill-1-4.drl for board a01809c.brd ... layers TOP and BOTTOM
;T01 Holesize 1. = 8.000000 Tolerance = +3.000000/-3.000000 PLATED MILS Quantity = 18
;T02 Holesize 2. = 12.000000 Tolerance = +3.000000/-3.000000 PLATED MILS Quantity = 148
;T03 Holesize 3. = 42.000000 Tolerance = +3.000000/-3.000000 PLATED MILS Quantity = 2
;T04 Holesize 4. = 62.000000 Tolerance = +3.000000/-3.000000 PLATED MILS Quantity = 2
;T05 Holesize 5. = 30.000000 Tolerance = +2.000000/-0.000000 NON_PLATED MILS Quantity = 2
;T06 Holesize 6. = 70.000000 Tolerance = +3.000000/-3.000000 NON_PLATED MILS Quantity = 4
;T07 Holesize 7. = 120.000000 Tolerance = +3.000000/-3.000000 NON_PLATED MILS Quantity = 3
%
G90
T01C0.008
T02C0.012
T03C0.042
T04C0.062
T05C0.030
T06C0.070
T07C0.120
T01
X000000Y000000
X-000150Y000250
X000150Y000250
X000150Y-000200
X-000150Y-000200
X000000Y000500
X000000Y-000500
X-000500Y-000900
X000500Y-000900
X-000500Y000850
X000500Y000850
X-000750Y002250
X-000500Y-002000
X000500Y-002100
X-000500Y-000550
X000500Y-000550
X000500Y000550
X-000500Y000550
T02
X-002700Y-000850
X-001450Y-003750
X-002600Y-002100
X004750Y-001500
X005600Y-006450
X005600Y-004850
X-006400Y007800
X-004950Y-004450
X-005250Y006500
X-005600Y001770
X-005600Y-001570
X004750Y001820
X-005600Y002250
X-005100Y002250
X-006100Y002250
X-006100Y001250
X-005600Y001250
X-005100Y001250
X-005600Y-001000
X-005100Y-001000
X-006100Y-001000
X-005600Y-002000
X-006100Y-002000
X-005100Y-002000
X004750Y001250
X005250Y001250
X004250Y001250
X004750Y002500
X005250Y002500
X004250Y002500
X004750Y-001000
X004750Y-002000
X005250Y-002000
X004250Y-002000
X005250Y-001000
X005000Y000750
X004250Y000750
X005000Y-000250
X005600Y-003050
X005600Y000700
X-005850Y000750
X-005150Y005550
X-005250Y000750
R04X000750
X-005850Y-000500
X-004300Y-001600
X-005250Y-000500
X-004500Y-000500
X-003810Y-000500
X-003250Y-000500
X-003250Y007750
R02X002000
X-006400Y005550
X-006400Y004100
X-006450Y002900
X-006200Y-002700
X-006200Y-004450
X-006200Y-005950
X-004500Y-008250
X-001500Y-008250
X000750Y-008250
X002500Y-008250
X004350Y-004850
X004350Y-003100
X-004150Y001150
X-003200Y001150
X-002600Y001150
X-004150Y-000900
X-003650Y-000900
X003850Y000600
X002850Y000600
X002950Y-000350
R02X000650
X003250Y-000800
X004000Y-000800
X003850Y001150
X001000Y005550
X001000Y004800
X000950Y004050
X000900Y003500
X000600Y002200
X-000650Y001400
X000600Y001350
X-000800Y003700
X-000750Y005550
X002850Y007800
X005500Y007750
X005550Y005750
X005550Y003400
X-004250Y005300
X-002750Y005300
X-001500Y005300
X-004500Y002500
X-003000Y002500
X-001500Y002750
X-003650Y-004450
X-002300Y-004450
X-001200Y-004450
X-000650Y-005550
X000750Y-005600
X-004950Y-005900
X-003650Y-005850
X-002300Y-005750
X-001200Y-005650
X-004900Y-003150
X-003700Y-003100
X-002350Y-003300
X001600Y-003700
X002950Y-003700
X004900Y-003900
X001550Y-005100
X003000Y-005100
X002500Y-006000
X004300Y-005850
X-002400Y002500
X-003650Y002500
X-000650Y006500
X000900Y006450
X002400Y006150
X002400Y003300
X002400Y004450
X002400Y002200
X002400Y001800
X002400Y002850
X002400Y003850
X-003200Y-000900
X003600Y006100
X003600Y005000
X003550Y003550
X004650Y005550
X004550Y004200
X-003550Y005950
X-002050Y005900
X-002050Y-000750
X-001250Y-000800
X001450Y-000650
X002300Y-000700
X001950Y000600
X002400Y001200
X003300Y001200
X001850Y-001300
X002800Y-001350
X002450Y-002450
T03
X003400Y008500
X004400Y008500
T04
X-002000Y008500
X001450Y008500
T05
X000000Y-001246
X000000Y001246
T06
X000000Y-004625
X000000Y-002925
X000000Y002925
X000000Y004625
T07
X-005350Y-007250
X-005250Y008000
X004500Y-007250
M30
